<svg viewBox="0 0 236 236" version="1.1" xmlns="http://www.w3.org/2000/svg" xmlns:xlink="http://www.w3.org/1999/xlink">
  <g stroke="#FEFEFE" stroke-width="7.182" fill="none" fill-rule="evenodd">
    <path d="M3.5912 117.8432c0-63.099 51.152-114.251 114.251-114.251 63.1 0 114.252 51.152 114.252 114.251 0 63.099-51.152 114.251-114.252 114.251-63.099 0-114.251-51.152-114.251-114.251z"/>
    <path d="M103.977 163.077c-.705 0-1.412-.164-2.065-.497-1.542-.786-2.515-2.381-2.515-4.125V77.232c0-1.744.973-3.339 2.515-4.126 1.541-.786 3.392-.63 4.782.405l54.612 40.612c1.172.871 1.864 2.252 1.864 3.721 0 1.468-.692 2.849-1.864 3.72l-54.612 40.612c-.802.597-1.757.901-2.717.901z"/>
  </g>
</svg>
