<svg xmlns="http://www.w3.org/2000/svg" viewBox="0 0 752.7 231.1" enable-background="new 0 0 752.7 231.1"><style type="text/css">.st0{fill:#FFFFFF;}</style><path class="st0" d="M213.5 10.7c-.3-.3-.5-.5-.7-.6.1-.2.1-.4.1-.6 0-.5-.2-1.3-.9-1.7-.2-.1-.5-.3-.8-.3.2-.2.4-.4.5-.7.1-.2.1-.4.1-.7 0-.8-.4-1.4-.8-1.8-.5-.4-1.2-.6-1.8-.6-1.1 0-1.8.7-1.8 1.3s.6 1 1 1 .8-.3.8-.7c0-.3-.2-.3-.2-.3-.1 0-.1.2-.1.3.1.2-.3.4-.5.4-.3 0-.5-.3-.5-.5s.2-.5.5-.7c.2-.1.5-.2.8-.2.8 0 2.3.6 2.3 2 0 .7-.5 1.1-1 1.3s-1 .2-1.2.2c-.5 0-1.1-.1-1.9-.4-.8-.3-1.6-.9-2.5-1.8.3-.4.5-1 .5-1.7s-.3-1.4-.8-1.7c-.3-.3-.7-.4-1.1-.4-.8 0-1.1.7-1.1.9s.2.6.6.6c.4 0 .5-.3.6-.5 0-.1-.1-.2-.1-.1s-.2.4-.4.4-.3-.2-.3-.3c0-.4.3-.6.7-.6.6 0 1.3.5 1.3 1.6 0 .4-.1.9-.3 1.3l-.3-.3c-.6-.8-1.2-1.6-2.2-1.6h-.2s-.3-.2-.4-.6c-.1-.3-.1-.7 0-1.1.4.2 1.1.4 1.7 0 .7-.5.2-1.5-.5-1.5-.6 0-1.2.3-1.4 1-.1-.2-.3-.4-.3-.7-.1.3-.2.5-.3.7-.3-.7-.9-1-1.4-1-.8 0-1.2 1-.5 1.5.6.4 1.3.2 1.7 0 .1.4.1.8 0 1.1s-.4.5-.4.6h-.2c-1 0-1.6.8-2.2 1.4l-.3.3c-.2-.4-.3-.8-.3-1.3 0-1.1.7-1.6 1.3-1.6.3 0 .7.2.7.6 0 .1-.1.3-.3.3-.3 0-.4-.3-.4-.4-.1-.1-.2-.1-.1.1 0 .2.2.5.6.5.4 0 .6-.4.6-.6s-.2-.9-1.1-.9c-.4 0-.8.1-1.1.4-.4.4-.8 1-.8 1.7 0 .6.2 1.2.5 1.7-.8 1-1.7 1.5-2.5 1.8-.7.3-1.4.4-1.9.4-.2 0-.7 0-1.2-.2s-1-.6-1-1.3c0-1.4 1.4-2 2.3-2 .3 0 .6.1.8.2.3.2.5.5.5.7 0 .3-.3.5-.5.5s-.6-.2-.5-.4c0-.1.1-.3-.1-.3 0 0-.2 0-.2.3 0 .5.4.7.8.7s.9-.3.9-.9-.7-1.3-1.8-1.3c-.6 0-1.3.2-1.8.6-.4.4-.8 1-.8 1.8 0 .3.1.5.1.7.1.3.3.5.5.7-.3 0-.6.2-.8.3-.7.4-.9 1.2-.9 1.7 0 .2 0 .4.1.6-.1.1-.4.2-.7.6-.3.4-.6 1-.6 2 0 .7.2 1.7.6 2.4.4.7 1 1.3 1.7 1.7.7.4 1.4.8 2.3.8 1.4 0 2.1-.8 2.2-1.1.1.2.3.4.5.6.5.4 1.4.9 2.1 1l-.1-.1c-.1 0-.9-.2-1.6-.7-.5-.4-.8-.9-.9-1.1.2-.3.4-.8.4-1.4 0-.6-.2-1.1-.6-1.5l.1-.3s.1-.2.1-.3c.3 0 .6-.1.9-.2.3-.2.5-.4.5-.6 0-.3-.2-.4-.5-.4-.5 0-.8.3-1 .5l-.3.5c-.2 0-.5-.1-.8-.3-.5-.3-.9-.8-1.1-1.1.2-.1.4-.2.5-.3.2.1.3.3.5.3.2.1.5.1.7.1.8 0 1.5-.6 1.5-1.6 0-.4-.1-.7-.3-.9l.4-.5-.1-.1-.5.5c-.3-.3-.6-.4-.9-.4-.2 0-.5.1-.7.3s-.3.4-.3.6c0 .1.1.2.2 0 0-.1.1-.3.2-.4.2-.2.4-.3.6-.3.2 0 .5.1.7.3-.3.2-.6.5-.9.8-.2.2-.5.4-.9.7-.1-.1-.2-.2-.2-.3-.3-.4-.7-1-.7-1.3v-.1c0-.3-.1-.6-.3-.8.4 0 .8 0 1.2-.1 1.9-.4 3.4-1.6 3.5-1.8.1-.1.3-.2.4-.4.4.3.9.6 1.6.6 1.2 0 2-.6 2.3-1.3.3.7 1.1 1.3 2.3 1.3.6 0 1.2-.2 1.6-.6.2.1.3.3.4.4.2.1 1.6 1.4 3.5 1.8.6.5 1 .5 1.4.5-.2.2-.3.5-.3.8v.1c0 .3-.4.9-.7 1.3-.1.1-.2.2-.2.3-.4-.2-.7-.5-.9-.7-.3-.2-.6-.5-.9-.8.2-.2.5-.3.7-.3s.4.1.6.3c.1.1.2.3.2.4 0 .2.2.1.2 0 0-.2-.1-.5-.3-.6-.2-.2-.5-.3-.7-.3-.3 0-.6.1-.9.4l-.5-.5-.1.1.4.5c-.2.2-.3.5-.3.9 0 .9.7 1.6 1.5 1.6.2 0 .5 0 .7-.1s.3-.2.5-.3l.5.3c-.2.2-.6.7-1.1 1.1-.3.2-.7.2-.8.3-.1-.2-.2-.4-.3-.5-.1-.2-.4-.5-1-.5-.3 0-.5.2-.5.4s.2.5.5.6.6.2.9.2l.1.3s.1.2.1.3c-.4.3-.6.8-.6 1.5 0 .6.2 1.1.4 1.4-.1.2-.4.7-.9 1.1-.7.5-1.5.7-1.6.7 0 0-.1 0-.1.1.8-.1 1.7-.6 2.1-1 .2-.2.4-.4.5-.6.1.3.9 1.1 2.2 1.1.9 0 1.6-.3 2.3-.8s1.3-1.1 1.7-1.7c.4-.7.6-1.7.6-2.4.3-1.2 0-1.9-.3-2.3zm-11-10.3c.2 0 .5.2.5.5 0 .4-.4.6-.9.5-.2 0-.4-.1-.6-.2.2-.7.8-.8 1-.8zm-3 1c-.5.1-.9-.2-.9-.5s.3-.5.5-.5.8.1 1.1.8c-.3.1-.5.2-.7.2zm-4.3 10.6c.2-.1.3-.1.4-.1.2 0 .2.3-.1.5-.2.2-.5.2-.9.2.2-.3.4-.5.6-.6zm-.3-2.8c.1.2.2.4.2.6 0 .7-.5 1.2-1.1 1.2-.3 0-.6-.1-.8-.3.6-.4 1.2-.9 1.7-1.5zm-.7 4.5c.4.4.4.9.4 1.1 0 .2-.1.6-.3 1-.1-.3-.2-.8-.2-1.4 0-.1.1-.4.1-.7zm-1.8-1.8c.2.2.5.5 1 .7.2.1.5.2.7.2-.1.2-.1.3-.1.3-.3-.2-.7-.3-1.2-.3-1.1 0-1.7.7-1.7 1.4 0 .3.1.6.3.8s.5.3.7.3c.5 0 .8-.4.8-.8s-.5-.7-.6-.5.1.2.1.4c0 .1.1.2 0 .4-.2.2-.5.2-.7-.1-.1-.1-.1-.3-.1-.4 0-.5.4-1.1 1.3-1.1.2 0 .4 0 .5.1.1 0 .3.1.4.2-.1.2-.1.6-.1 1.1 0 .8.4 1.6.4 1.7-.2.3-.5.6-1 .8-.3.1-.6.2-1 .2-1 0-2.2-.6-3.1-1.6-.6-.7-1-1.8-1-2.8 0-.5.1-1 .4-1.5.1-.2.3-.4.5-.5.5.6 1.2.9 1.9.9.3 0 .7-.1 1-.2.3 0 .6.2.6.3zm-3-1.4l.4-.1c.7 0 1.2.3 1.7.7-.2.1-.4.1-.6.1-.3 0-.6-.1-.8-.2-.3-.1-.5-.3-.7-.5zm2.5-1c0 .1 0 .1.1.2.1.3.3.7.6 1.1-.2.1-.4.2-.5.3-.2-.2-.5-.5-1-.7-.5-.3-1-.4-1.3-.4-.2 0-.4 0-.5.1 0-.2-.1-.3-.1-.4 0-.9.7-1.6 1.5-1.6.3 0 .5.1.6.2.3.2.4.5.4.7s-.1.4-.2.5c-.2.2-.4.2-.6.2-.3 0-.4-.1-.5-.1-.1-.1-.1-.2-.1-.2 0-.1 0-.2.1-.2 0 0 .2 0 .2-.2 0 0 0-.1-.1-.1s-.4.2-.4.6c0 .2.1.4.3.6.2.1.4.2.5.2.1-.4.7-.5 1-.8zm8-3.9c-.3.1-.6.3-1.1.3-.6 0-1.1-.2-1.4-.6.5-.5 1-1 1.4-1.3.3-.2.6-.3.8-.3s.4.1.5.2c.2.2.3.5.3.8.1.2 0 .6-.5.9zm.9-1.7c-.2-.4-.5-.6-.8-.7.1-.1.6-.4.6-1.4 0-.2 0-.4-.1-.6.1-.2.2-.3.2-.5 0 .1.1.3.2.5l-.1.6c0 1 .5 1.3.6 1.4-.1.1-.5.3-.6.7zm2 2c-.5 0-.8-.2-1.1-.3-.5-.3-.6-.7-.6-.9 0-.3.1-.5.3-.8.1-.1.3-.2.5-.2s.5 0 .8.3c.5.4 1 .9 1.4 1.3-.2.4-.7.6-1.3.6zm4.7 5.1c-.5 0-1.1-.5-1.1-1.2 0-.2.1-.4.2-.6.5.6 1.1 1.1 1.7 1.5-.2.2-.5.3-.8.3zm-1.5 1.3c-.2-.2-.3-.4-.1-.5.1 0 .2 0 .4.1s.4.3.5.6c-.2.1-.6 0-.8-.2zm3-1.5c.3-.3.5-.8.6-1.1 0-.1 0-.2.1-.2.3.4.9.5 1.1.5.1 0 .3 0 .5-.2.2-.1.3-.4.3-.6 0-.4-.3-.6-.4-.6-.1 0-.1.1-.1.1 0 .1.1.1.2.2l.1.2s0 .2-.1.2-.2.1-.5.1c-.2 0-.4 0-.6-.2-.1-.2-.2-.4-.2-.5 0-.2.1-.5.4-.7.2-.1.4-.2.6-.2.8 0 1.5.7 1.5 1.6 0 .1 0 .3-.1.4l-.5-.1c-.3 0-.8.1-1.3.4-.4.2-.8.5-1 .7-.2.1-.4 0-.6 0zm3.1-.3c-.1.2-.4.4-.7.6-.2.1-.5.2-.8.2-.2 0-.4 0-.6-.1.5-.4 1.1-.7 1.7-.7.2-.1.3-.1.4 0zm-4.9 5.3c-.2-.4-.3-.8-.3-1s0-.7.4-1.1c.1.3.1.6.1.8 0 .5-.1 1-.2 1.3zm5.2-.3c-.9 1-2.1 1.6-3.1 1.6-.4 0-.7-.1-1-.2-.4-.2-.7-.5-1-.8 0-.1.4-.9.4-1.7 0-.5-.1-.8-.1-1.1l.4-.2c.1 0 .3-.1.5-.1.9 0 1.3.6 1.3 1.1 0 .2-.1.3-.1.4-.2.3-.5.3-.7.1-.1-.1-.1-.3 0-.4.1-.1.2-.2.1-.4s-.6 0-.6.5.4.8.8.8c.2 0 .5-.1.7-.3s.3-.5.3-.8c0-.7-.6-1.4-1.7-1.4-.4 0-.8.1-1.2.3l-.1-.3c.2 0 .5-.1.7-.2.4-.2.8-.5 1-.7.1-.1.3-.3.6-.5.3.1.7.2 1 .2.7 0 1.4-.3 1.9-.9.2.1.3.3.5.5.3.5.4 1.1.4 1.5 0 1.3-.4 2.3-1 3zm-9.3-3.5c-.4-.2-1-.4-1.8-.8-.9-.4-1.5-.7-1.9-.9-.3-.2-.5-.6-.5-1s.2-.6.5-.9c.3-.3.8-.5 1.4-.5.7 0 1.4.2 1.8.6.5.4.8.7.9 1.2h.2l-.2-1.8c-.7-.4-1.5-.5-2.5-.5-.9 0-1.7.2-2.4.6-.7.4-1.1 1-1.1 1.8 0 .6.2 1 .6 1.4.4.4 1 .8 1.9 1.1 1.2.5 2 .8 2.3 1.1.4.2.5.7.5 1.3 0 .5-.2.8-.5 1.2-.4.4-1 .6-1.8.6s-1.5-.2-2-.7c-.5-.4-.9-.9-1.1-1.6l-.2-.1.2 2.1c.6.3 1.2.5 1.6.6.4.1 1 .2 1.6.2 1 0 1.8-.3 2.6-.8s1.2-1.2 1.2-2c0-.6-.2-1.1-.5-1.4-.1-.3-.5-.6-.8-.8z"/><path id="SVGID_1_" class="st0" d="M243.7 23.7v.2c-.7.3-1.1.6-1.1 1.3v23c-1.4-1.5-3-3.2-4.7-5-1.8-1.8-4.6-4.9-8.6-9.1-4-4.3-5.6-5.9-5.6-6v17.9c0 .7.4 1 1.1 1.3v.2h-4.8v-.2c.7-.4 1.1-.7 1.1-1.3v-20.299999999999997c0-.2-.1-.6-.4-.9l-.1-.1c-.3-.2-.7-.4-1.3-.4-1.1 0-1.7.7-2 1.1l-.2.3-6.7 10.7v9.6c0 .6.5.9 1.5 1.3v.2h-6.9v-.2c1-.5 1.5-.8 1.5-1.3v-9.6l-7.7-11c-.2-.3-.5-.9-1.2-.9-.5 0-.8.3-1.5.9l-1.1.9-8.9 7.5c1.4 1.3 5.5 6.5 11.7 11.1 1.8 1.4 5.2 2.4 5.2 2.4v.3h-2.8c-7.1 0-16.5-11.4-16.5-11.4l-.2-.2-.5.4-.6.5v9.1c0 .7.4.9 1.1 1.3v.2h-6.1v-.2c.7-.4 1.1-.7 1.1-1.3v-20.7c0-.7-.4-1-1.1-1.3v-.2h6.1v.2c-.8.4-1.1.6-1.1 1.3v8.8c.1-.1.2-.1.2-.2 2.4-2.1 7-5.7 9.8-8 .8-.7 1.2-1.1 1.3-1.2.2-.4 0-.6-.4-.8v-.2h11.1v.2c-.7.1-1 .2-1.2.4-.1.2 0 .7.5 1.5l5.6 8.4 5.6-8.9c.5-.8.4-1.2-.8-1.5v-.2h10.5l15.6 16.5v-14.8c0-.7-.4-1-1.1-1.3v-.2l4.6-.1z"/><path class="st0" d="M174.8 37.2c.7.9 1.2 2.1 1.2 3.6 0 2.1-1.1 3.8-3.1 5.2-2 1.3-4.1 2-6.6 2-1.6 0-3-.2-4.1-.5s-2.5-.9-4.1-1.6l-.4-5.3.4.1c.6 1.6 1.5 2.8 2.8 4 1.3 1.1 2.9 1.7 5 1.7s3.6-.5 4.5-1.5 1.4-1.8 1.4-3c0-1.5-.5-2.7-1.4-3.2-.9-.6-2.9-1.5-5.9-2.7-2.2-.9-3.8-1.8-4.8-2.8s-1.6-2.2-1.6-3.6c0-2 1-3.5 2.9-4.6 1.8-1.1 3.9-1.6 6.2-1.6 2.4 0 4.6.4 6.3 1.3l.6 4.7h-.5c-.3-1.1-1.1-2-2.3-3s-2.8-1.5-4.7-1.5c-1.6 0-2.8.4-3.6 1.2-.8.8-1.2 1.4-1.2 2.3 0 1 .4 2 1.2 2.5.8.6 2.3 1.3 4.7 2.3 2 .8 3.5 1.5 4.5 2s1.9 1.1 2.6 2zm11.3-3.4c1.4 1.3 5.5 6.5 11.7 11.1 1.8 1.4 5.2 2.4 5.2 2.4v.3h-2.8c-5.5 0-12.4-6.8-15.2-9.9-.8-.9 1.1-3.9 1.1-3.9zm165.8 9.6c0-1 .2-1.7 1.1-1.7 1 0 1.2.8 1.2 1.7 0 1-.2 2-1.2 2s-1.1-1-1.1-2m0-1.9v-.6h-.8v7.5h.8v-2.7c.4.4 1 .6 1.4.6.6 0 1-.2 1.2-.6.6-.6.8-1.4.8-2.2 0-.6-.2-1.6-.8-2.2-.2-.2-.6-.4-1.2-.4-.5 0-1.1 0-1.4.6zm-3-.6v3.2c0 .8-.6 1.4-1.2 1.4-.8 0-1.2-.6-1.2-1.4v-3.2h-1v3.3c0 .6.2 1.1.6 1.4.4.4.8.6 1.4.6.5 0 1-.2 1.4-.6v.4h.8v-5.2l-.8.1zm-7.4 4.1c-.4-.4-.4-1-.4-1.6s0-1.2.4-1.6c.2-.2.6-.2.8-.2.4 0 .8 0 1 .2.4.4.4 1 .4 1.6s0 1.2-.4 1.6c-.2.2-.6.4-1 .4-.2 0-.5-.1-.8-.4zm-.6-3.5c-.5.6-.5 1.4-.5 2 0 .8 0 1.6.5 2.2.5.4.8.6 1.4.6.5 0 1.1-.2 1.6-.6.5-.6.5-1.4.5-2.2 0-.6 0-1.4-.5-2-.5-.4-1.1-.6-1.6-.6s-.9.2-1.4.6zm-1.9-.6c-.5 0-1 .2-1.4.6v-.6h-.8v5.2h.8v-3.2c0-.8.4-1.1 1.2-1.1.4 0 .6 0 .8.2v.2l.8-.8h-.2c-.3-.5-.6-.5-1.2-.5zm-7.9-1.6c-.8.8-.8 1.4-.8 3s0 2.4.8 3.2c.4.4 1.2.8 1.8.8.8 0 1.5-.5 2.1-1 .4-.5.6-1.1.6-2v-1.1h-2.7v.8h1.7v.6c0 .6 0 1-.4 1.2-.2.4-.8.6-1.4.6-.5 0-.8 0-1.2-.5-.4-.4-.4-1-.4-2.6 0-1.4 0-2 .4-2.4s.8-.6 1.2-.6c1 0 1.5.6 1.7 1.6h1c-.2-1.4-1.4-2.4-2.7-2.4-.5 0-1.4.4-1.7.8zm-8.8-.6v.8h2.2v6.5h1v-6.5h2.2v-.8h-5.4zm-2.5.8c1 0 1.6.4 1.6 1.4 0 .8-.6 1.4-1.6 1.4h-1.7v-2.7c.1-.1 1.7-.1 1.7-.1zm-2.5-.8v7.4h.8v-3h2c1.4 0 2.2-.8 2.2-2.2s-.8-2.2-2.2-2.2h-2.8zm-6 .6c-.8.8-.8 1.4-.8 3s0 2.4.8 3.2c.6.4 1.2.8 2 .8s1.4-.5 2-1c.5-.5.6-1.1.6-2v-1.1h-2.7v.8h1.7v.6c0 .6 0 1-.4 1.2-.2.4-.8.6-1.2.6-.5 0-1 0-1.1-.5-.6-.4-.6-1-.6-2.6 0-1.4 0-2 .6-2.4.2-.4.6-.6 1.1-.6.8 0 1.4.6 1.6 1.6h1c-.2-1.4-1.1-2.4-2.6-2.4-.8 0-1.4.4-2 .8zm-6.9 2.9c0-.4.6-.5 1-.5.6 0 1 .2 1.2.5 0 .2.2.5.2.8h-2.6c-.1-.3-.1-.5.2-.8zm-1.3 1.2c0 1.8.8 2.8 2.4 2.8 1 0 1.4-.5 1.7-.8l.2-.2-.6-.5h-.2c-.4.5-.5.6-1.1.6-1 0-1.4-.6-1.4-1.7h3.4v-.5c0-1.4-.8-2.4-2.2-2.4-1.3.2-2.2 1.1-2.2 2.7zm-4.9-4.7v7.4h.8v-3.2c0-.8.4-1.1 1.1-1.1.8 0 1.2.4 1.2 1.1v3.2h.8v-3.2c0-1.4-.5-2-1.7-2-.6 0-1 .2-1.4.4v-2.6h-.8zm-5.9 0v.8h2.2v6.5h.8v-6.5h2.2v-.8h-5.2zm0-16.1c0-3.3 2.6-5.9 5.9-5.9h19.2c2 0 2.8-1.6 2.8-3.2v-2.4c0-2-1.6-3-2.8-3h-3.6v6.4h-8.7v-10.9h43.8v4.6h-7.7v26.2h-8.7v-26.2h-4.1v4.6c0 4.9-3.2 7.9-9.9 7.9h-4.6v13.7h-8.7v-13.7h-2.4c-1 0-1.7.8-1.7 1.7v11.9h-13.9c-5.7 0-8.9-4.9-8.9-9.7v-10.5c0-4.2 1.2-10.5 12.3-10.5h10v4.6h-10.5c-2.4 0-3.1 2.4-3.1 3.4v15.3c0 1 .4 3.6 2.7 3.6h2.6v-7.9zm-210.9 24.7c.1-.1.1-.1.2 0 .2.2.5.6 1.2.6s1-.4 1-.8c0-.6-.6-.8-1.1-.9-.8-.3-1.3-.6-1.3-1.3 0-.6.5-1.2 1.4-1.2.7 0 1.2.4 1.3.5.1.1.1.1 0 .2l-.1.1s-.1.1-.2 0c-.2-.1-.5-.5-1.1-.5-.5 0-.9.3-.9.8s.4.7 1.1.9c.7.3 1.4.6 1.4 1.4 0 .7-.6 1.3-1.5 1.3s-1.4-.5-1.5-.7c0 0-.1-.1 0-.1l.1-.3zm5-3.7l.1 4.6s0 .1-.1.1h-.4s-.1 0-.1-.1v-4.5s0-.1.1-.1h.4zm5.9.1v4.6s0 .1-.1.1h-.1c-.1 0-.2-.1-.3-.2l-3-3.6v3.7s0 .1-.1.1h-.3s-.1 0-.1-.1v-4.5s0-.1.1-.1h.2s.1 0 .1.1l3.1 3.7v-3.7s0-.1.1-.1h.4zm5.8 3.9c-.4.4-1 .7-1.7.7-1.3 0-2.4-1-2.4-2.4 0-1.3 1.1-2.4 2.4-2.4.7 0 1.3.3 1.7.7.1.1.1.1 0 .1l-.3.2h-.1c-.2-.2-.7-.5-1.3-.5-1.2 0-1.9 1-1.9 1.9s.7 1.9 1.9 1.9c.6 0 1-.3 1.3-.6 0 0 .1-.1.1 0l.3.2v.2zm2.2-3.5v1.7h1.5c.1 0 .1 0 .1.1v.3c0 .1 0 .1-.1.1h-1.5v1.6h2.5c.1 0 .1 0 .1.1v.3c0 .1 0 .1-.1.1h-2.9s-.1 0-.1-.1v-4.5s0-.1.1-.1h2.9c.1 0 .1 0 .1.1v.2c0 .1 0 .1-.1.1h-2.5zm7.7-.3v4.4s0 .1-.1.1h-.3c-.1 0-.1 0-.1-.1v-3.5l-.5.1h-.1v-.2s0-.1.1-.1c.3-.1.5-.4.6-.6h.1l.3-.1zm1.6 1.4c0-.8.6-1.5 1.5-1.5 1 0 1.6.8 1.6 2 0 1.4-.7 2.7-2.3 2.7-.1 0-.1 0-.1-.1v-.3s0-.1.1-.1c1.4 0 1.8-1.2 1.8-1.9-.2.4-.6.6-1.1.6-.9 0-1.5-.6-1.5-1.4zm.5 0c0 .6.4 1 1 1s1.1-.5 1.1-1c0-.6-.5-1.1-1-1.1-.7 0-1.1.5-1.1 1.1zm4.1.9c0-1.3.5-2.3 1.7-2.3s1.7 1.1 1.7 2.3c0 1.3-.5 2.3-1.7 2.3s-1.7-1.1-1.7-2.3zm3 0c0-1-.3-1.9-1.3-1.9s-1.3.9-1.3 1.9.3 1.8 1.3 1.8 1.3-.9 1.3-1.8zm3.6-.6c.8 0 1.4.7 1.4 1.5s-.6 1.4-1.5 1.4c-.6 0-1.1-.3-1.5-.8v-.1l.2-.2h.1c.2.4.6.6 1.1.6.6 0 1-.5 1-.9 0-.6-.4-1-.9-1-.4 0-.6.2-.9.4l-.4-.1s-.1 0-.1-.1v-2.3c0-.1 0-.1.1-.1h2.4c.1 0 .1 0 .1.1v.3c0 .1 0 .1-.1.1h-2v1.6c.2-.3.6-.4 1-.4zm-68.8-22.7c-3.8-1.4-6.4-2.5-6.4-5.4 0-2.6 2.3-4.5 5.5-4.5 3.3 0 5.3 2 6.2 2.8.3.3.7.2.9-.1l1-1.2c.2-.3.1-.6-.2-.9-.8-.8-3.6-3.2-7.9-3.2-5.7 0-8.4 3.7-8.4 7.3 0 4.1 3.1 6.2 7.9 7.9 3 1.1 6.8 2.1 6.8 5.6 0 2.5-2 4.8-6.2 4.8-4 0-6.1-2.4-7.1-3.5-.3-.2-.6-.2-.9.1l-1.4 1.5c-1.3 1.4-3.2 2.3-5.3 2.3-3.5 0-6-2.3-6.4-5.6h12.4c1 0 1.7-.5 1.7-1.7 0-4.2-3.3-8.1-8.2-8.1s-8.7 3.9-8.7 8.8c0 5.2 3.9 8.9 8.9 8.9 3 0 5.4-1.2 6.9-3.3 1.3 1.3 4 3.2 8.1 3.2 5.4 0 9.1-3.4 9.1-7.6 0-4.7-4.1-6.5-8.3-8.1zm-16.1.5c3.7 0 5.4 3.1 5.4 5.2h-11.2c.4-2.8 2.5-5.2 5.8-5.2zm51.4-2.3h-2.2c-.3 0-.4.1-.5.3l-4.8 11.8-5.8-11.8c0-.2-.2-.3-.4-.3h-8v-5.1c0-.2-.1-.4-.3-.4h-.6c-.1 0-.2.1-.3.3-.9 4.1-1.9 5.2-4 6.3-.2.1-.2.3-.2.5v.5c0 .3.2.4.5.4h2.1v8.5c0 4.3.9 6.4 4.6 6.4 1.3 0 2.5-.3 3.2-.7.2-.1.4-.3.3-.6l-.3-1.5c-.1-.3-.3-.3-.7-.2-.6.1-1.1.3-2.1.3-2.1 0-2.2-1.5-2.2-4.1v-8.1c.1.1.4.1.7.1h5.9l6.3 12.3c-1.7 4-4 8.3-6.2 10.8-.3.3-.3.6 0 .9l1.1 1.1c.2.2.5.3.8.1 1.8-1.9 4.1-6 7.3-12.7l6.3-14.7c0-.2-.2-.4-.5-.4zm3.7-10.7h-1.3c-.2 0-.4.2-.4.4v27c0 .2.2.4.4.4h1.2c.7 0 1.2-.4 1.2-1.2v-25.6c-.1-.6-.5-1-1.1-1zm11.8 10.5c-4.9 0-8.7 3.9-8.7 8.8 0 5.2 3.9 8.9 8.9 8.9 3 0 5.4-1.3 7-3.3.2-.2.1-.4-.1-.7l-.6-.6c-.3-.2-.4-.2-.7 0-1.3 1.4-3.2 2.3-5.3 2.3-3.5 0-6-2.3-6.4-5.6h12.4c1 0 1.7-.5 1.7-1.7 0-4.2-3.3-8.1-8.2-8.1zm-5.9 7.7c.5-2.8 2.5-5.2 5.8-5.2 3.7 0 5.4 3.1 5.4 5.2h-11.2zm21.1-.1c-1.8-.6-3.7-1.1-3.7-2.7 0-.8.4-2.3 3.1-2.3 1.6 0 3 .5 4.4 1.3.3.1.5.1.7-.2l.9-1.3c.2-.3.1-.5-.3-.7-1.2-.7-3-1.7-5.6-1.7-3.9 0-6 2.3-6 4.9s2.2 4.1 5.4 5c2.5.7 4.4 1.2 4.4 2.9 0 1.2-.9 2.3-3.6 2.3s-4.5-1.2-5-1.5c-.3-.2-.4-.1-.6.2l-.9 1.3c-.1.2 0 .4.1.6.9.7 3.4 2.1 6.3 2.1 4 0 6.6-2 6.6-4.8 0-3.3-3.1-4.5-6.2-5.4zm-95.4-4.8h5c.2 0 .3-.1.3-.4v-1.8c0-.3-.1-.4-.3-.4h-5v-3.8c0-3.7 2.8-4.4 4.3-4.4 1.6 0 2.6.6 3.2.9.3.1.5.1.6-.2l.7-1.5c.1-.2 0-.5-.2-.6-1.2-.7-2.6-1.2-4.4-1.2-3.9 0-6.7 2.1-7 6.4-.5 4.2-.9 4.5-3 5.6-.2.1-.2.3-.2.5v.5c0 .1 0 .2.1.3.1.1.2.1.3.1h2.8v13.6c0 .6.3 1 .9 1h1.4c.3 0 .4-.2.4-.5v-14.1h.1zm-8.8-2.6h-1.8c-.3 0-.5.2-.5.5v14h-8.6v-24.3c0-.6-.3-.9-1-.9h-1.5c-.2 0-.4.2-.4.4v26.9c0 .3.1.5.4.5h13.4c.3 0 .4-.2.4-.5v-16.2c.1-.3-.1-.4-.4-.4zm-.7-10.6c-.9 0-1.6.7-1.6 1.6s.7 1.6 1.6 1.6c.9 0 1.6-.7 1.6-1.6s-.8-1.6-1.6-1.6zM490.1 30.4c-9.7-8.9-26.9-9.6-27.1-9.7h-.8l-.6-.5c-.1-.1-11.3-10.2-26.9-10.2-18.5 0-31.1 13.9-31.3 14l-.7.8-19.7-1.9.6-4.1 17.4 1.6c3.1-3.1 15.6-14.6 33.6-14.6 15.3 0 26.5 8.6 29.1 10.8 3.6.2 19.2 1.7 28.9 10.6l-2.5 3.2zm-94.9 4.6c-.5-1-1.6-2.9-4.3-2.9-3.7 0-5 3.1-5 5.4 0 2.7 1.7 5.4 5 5.4 2.2 0 3.6-1.2 4.3-2.8h3.2c-1.2 3.4-4.1 5.4-7.5 5.4-5 0-7.9-4.1-7.9-8.1 0-4.1 3-8 7.9-8 4.3 0 6.9 3.2 7.5 5.5l-3.2.1zm17.5 10.3v-2.4h-.1c-1.1 1.9-3.1 2.8-5.2 2.8-5.2 0-8.1-4-8.1-8 0-3.7 2.6-8.1 8.1-8.1 2.1 0 4.1.9 5.2 2.6h.1v-2.2h2.9v15.3h-2.9zm-5.2-13.1c-3.5 0-5.3 3.1-5.3 5.5 0 2.8 2.2 5.4 5.2 5.4s5.3-2.5 5.3-5.4c.1-3.3-2.3-5.5-5.2-5.5zm43.3 13.1v-2.4h-.1c-1.1 1.9-3.1 2.8-5.2 2.8-5.2 0-8.1-4-8.1-8 0-3.7 2.6-8.1 8.1-8.1 2.1 0 4.1.9 5.2 2.6h.1v-2.2h2.9v15.3h-2.9zm-5.2-13.1c-3.5 0-5.3 3.1-5.3 5.5 0 2.8 2.2 5.4 5.2 5.4s5.3-2.5 5.3-5.4c.1-3.3-2.3-5.5-5.2-5.5zM458.4 45.3h-2.9v-20.5h2.9v20.5zm4.2-6.5c.7 3 3.1 4.2 5 4.2 2.1 0 3.7-1.2 4.4-2.6h2.9c-1.5 4-5 5.2-7.4 5.2-4.3 0-7.8-3.7-7.8-8.1 0-4.6 3.5-8 7.9-8 4.1 0 7.8 3.4 7.8 7.9 0 .5-.1 1.3-.1 1.5h-12.7v-.1zm9.9-2.2c-.1-2.2-2.2-4.5-4.9-4.5-2.8 0-4.8 2.2-4.9 4.5h9.8zm6.8-2.7c0-.6.5-1.9 2.4-1.9s2.5 1.6 2.6 2.1h2.8c0-1.2-1.2-4.6-5.3-4.6s-5 2.9-5.1 4.2c-.2 5 8 4.1 7.9 7.3 0 .6-.6 2-3 2-2.3 0-3.1-1.9-3.1-2.7h-2.8c.1 1.5 1.2 5.2 5.9 5.2s5.6-3.3 5.6-4.5c.2-5.1-8-4.8-7.9-7.1zm-50.6 0c0-.6.5-1.9 2.4-1.9s2.5 1.6 2.6 2.1h2.8c0-1.2-1.2-4.6-5.3-4.6s-5 2.9-5.1 4.2c-.2 5 8 4.1 7.9 7.3 0 .6-.6 2-3 2-2.3 0-3.1-1.9-3.1-2.7h-2.9c.1 1.5 1.2 5.2 5.9 5.2s5.6-3.3 5.6-4.5c.3-5.1-7.9-4.8-7.8-7.1zm-4.3-4.4c-2.8 0-3.8 1.4-4.4 2.1v-1.7h-2.7v15.3h2.9v-8.4c0-1.1 0-4.6 3.8-4.6.3 0 .6.1.9.2l1.3-2.6c-.6-.1-1.2-.3-1.8-.3zM596.6 11.8c.4.1.7.2 1.1.2 1.8.4 3.6.9 5.3 1.4 2.2.6 4.4 1.3 6.5 2.2 2.6 1.1 5.2 2.3 7.5 3.9 1.7 1.2 3.2 2.5 4.4 4.2.8 1.2 1.3 2.4 1.5 3.9.1 1.5-.2 3-.9 4.4-1 1.8-2.4 3.2-3.9 4.4-2.1 1.7-4.5 2.9-7 4-2.8 1.3-5.8 2.3-8.8 3.1-1.8.5-3.6.9-5.4 1.3-1.8.4-3.6.7-5.3 1-2.6.4-5.3.7-7.9 1-1.5.2-2.9.2-4.4.3-3.3.2-6.6.3-9.8.2-2.1 0-4.2-.1-6.4-.2-2.1-.1-4.2-.3-6.4-.5l-5.4-.7c-1.4-.2-2.7-.4-4.1-.7l-5.4-1.2c-1.9-.5-3.8-1.1-5.7-1.7-1.9-.6-3.7-1.4-5.5-2.2-1.8-.9-3.6-1.9-5.3-3.1-1.7-1.3-3.2-2.7-4.3-4.5-.8-1.3-1.2-2.8-1.1-4.3.1-1.5.6-2.8 1.3-4 1-1.5 2.3-2.8 3.7-3.9 2.4-1.8 5.1-3.2 7.9-4.4 2.5-1 5-1.9 7.6-2.6 1.9-.5 3.8-1 5.8-1.4 1.8-.4 3.6-.7 5.5-1s3.7-.5 5.6-.7c1.9-.2 3.8-.4 5.7-.5 1.6-.1 3.2-.2 4.8-.2 2 0 4-.1 5.9-.1 1.7 0 3.4.1 5.1.2.1 0 .1 0 .2-.1l-.3-.2c-.3-.2-.7-.5-.9-.7-.3-.3-.4-.7-.3-1.2.2-1.6.6-3.1 1.3-4.5.4-.8 1.1-1 1.9-.9 1 .2 1.8.6 2.7 1.1 1.8 1.2 3.3 2.5 4.7 4.2.2.3.5.6.7 1l.3-.3c1.4-1.2 2.9-2.1 4.6-2.9 1-.4 1.9-.8 3-1 .6-.1 1.1-.1 1.7 0 .7.2 1.1.6 1.3 1.2.4 1.4.6 2.9.5 4.3 0 .7-.4 1.2-1.1 1.4l-2 .5c-.4.2-.5.2-.5.3zm-12.8-.1c-.2 0-.3-.1-.4-.1-1-.1-1.9-.2-2.9-.2l-7.8-.3h-3c-1.1 0-2.3 0-3.4.1l-2.7.1c-2 .2-4.1.3-6.1.6-1.7.2-3.4.4-5.1.7-1.7.3-3.3.6-4.9 1-1.8.4-3.5.9-5.3 1.4-2.9.9-5.8 2-8.5 3.4-1.8 1-3.6 2.1-5.1 3.5-1.1 1-2 2.1-2.7 3.5-1 2.1-.9 4.2.2 6.3.7 1.3 1.6 2.3 2.7 3.3 1.7 1.5 3.7 2.7 5.7 3.7 2.3 1.2 4.8 2.1 7.3 2.9 2.7.8 5.5 1.5 8.2 2.1 1.6.3 3.2.6 4.7.8 1.8.2 3.5.5 5.3.6 1.9.2 3.8.3 5.7.4 1.6.1 3.2.1 4.8.1 2.2 0 4.5-.1 6.7-.2 1.3 0 2.5-.1 3.8-.2l5.7-.6c2-.3 4-.6 5.9-1 2-.4 4-.9 6-1.4 2.5-.7 5-1.5 7.4-2.5s4.8-2.3 6.9-3.9c1.4-1.1 2.6-2.3 3.5-3.8 1.2-2.1 1.4-4.3.4-6.6-.7-1.5-1.7-2.7-2.9-3.8-2.3-2-5-3.5-7.8-4.7-1.9-.8-3.8-1.5-5.8-2.1-1.5-.4-3-.8-4.6-1.2-1.2-.3-2.3-.5-3.5-.7l-.9-.2c1.1 2.3 2 4.5 2.9 6.8l-.4-.3c-.6-.5-1.2-.6-1.9-.4-.4.2-.8.4-1.1.7l-.7.7v-.3c0-1.6 0-3.2-.1-4.9 0-.8-.3-1.7-.4-2.5 0-.1-.2-.2-.3-.2-.8-.1-1.7-.2-2.6-.4-.2 0-.3 0-.4.2-.4.5-.9 1.1-1.2 1.6-1.2 1.7-2.1 3.5-3 5.4l-.2.3-.4-.9c-.2-.5-.5-.9-1.1-1-.4-.1-.8-.1-1.3 0-.3 0-.6.1-1 .2 0-.1 0-.2.1-.3.3-.8.7-1.4 1.2-2 1.1-1.3 2.4-2.3 3.8-3.3.1 0 .3-.2.6-.4zm2.2-1.8c0-.1-.1-.2-.2-.3-1.2-1.2-2.6-2.2-4.2-2.9-.8-.4-1.7-.6-2.6-.7-.5 0-.6.2-.5.6 0 .1.1.2.2.3.4.5 1 .7 1.5 1 1.4.7 2.9 1.1 4.4 1.6.5.2.9.3 1.4.4zm4.7.5c.1.1.2.1.3.1l5-.5c.7-.1 1.4-.4 2.1-.6.3-.1.5-.3.7-.6.1-.2 0-.4-.2-.5l-.3-.1c-.7-.1-1.3-.1-2 0-1.6.2-3 .7-4.4 1.5l-1.2.7zM564 17.1c-.2.3-.3.6-.5 1-1.3 2.5-2.8 4.9-4.5 7.2-2.8 3.7-6.2 6.8-10.3 9.2-1.6 1-3.2 1.8-4.9 2.5-1.2.4-2.4.7-3.7.7-2.4-.1-4.7-1.5-5.4-4-.6-2.2-.2-4.3 1.3-6.1 1.5-1.8 3.4-3 5.6-3.7 1.1-.4 2.3-.7 3.5-.7 1.5-.1 2.9.1 4.3.7.9.4 1.6.9 2.1 1.7.3.5.5 1.1.3 1.7 0 .2-.3.3-.5.2l-.1-.1c0-.8-.4-1.4-1.1-1.7-1-.5-2.1-.8-3.2-.9-3.2-.3-6.2.6-9 2.3-.7.4-1.3.9-1.8 1.6-1.1 1.4-1.1 2.8 0 4.2 1 1.2 2.2 1.9 3.7 2.3 1.3.4 2.7.4 4.1.2 1.6-.3 3.2-.9 4.6-1.7 1.4-.8 2.6-1.8 3.7-2.8 2.4-2.2 4.4-4.7 6.4-7.3 1.6-2.1 3.1-4.3 4.6-6.6.2-.3.2-.3-.2-.5-.7-.3-1.5-.2-2.2 0-.9.2-1.8.6-2.5 1.1-.1.1-.3.2-.5.3-.2.1-.3.1-.4-.1-.1-.2-.1-.3.1-.5 1.4-1.1 3-1.8 4.9-1.7 1.8.1 3.2 1.3 3.6 3.2.2 1.3-.1 2.5-.6 3.7-.8 1.9-1.8 3.6-2.9 5.3-1.3 2.1-2.6 4.3-4 6.4-.2.3-.3.6-.4.9v.3h.3c.5-.2.9-.5 1.3-.9l2.5-2.9c1.8-2.3 3.3-4.7 4.9-7.1l4.8-7.1c.2-.4.5-.7.8-1 .6-.6 1.3-.5 1.8.3.3.6.3 1.2.3 1.8-.1.9-.4 1.8-.8 2.6l-3.7 7.3c-.9 1.8-1.7 3.6-2.6 5.3l-.3.9v.3c0 .4.2.5.6.5.7-.1 1.2-.4 1.8-.9 1-.8 1.9-1.8 2.7-2.9.2-.2.2-.6.3-.9.8-2.4 2.3-4.1 4.6-4.9l1.2-.4c.3-.1.5 0 .5.2.1.2-.1.3-.3.4-2 .9-3.1 2.6-3.9 4.5-.4.9-.7 1.9-.8 3v1c.1.7.8 1.1 1.5.9.7-.2 1.3-.6 1.7-1.2 1.2-1.4 2-2.9 2.5-4.6v-.3c-.4-.7-.6-1.5-.6-2.3 0-.4.1-.8.3-1.1.3-.7 1.1-.7 1.5-.1.2.3.3.7.4 1.1.1.7.1 1.4-.1 2.1-.5 2.1-1.4 3.9-2.9 5.4-.7.7-1.5 1.3-2.5 1.5-1.3.4-2.6 0-3.2-1.2-.3-.5-.4-1.1-.4-1.7v-.3c-.1.1-.2.2-.3.2-.8.9-1.6 1.8-2.6 2.4-.5.3-1.1.6-1.7.6-1 .1-1.9-.5-2.1-1.5-.2-.9-.1-1.8.3-2.7l2.1-4.4 4-8.1c.4-.8.8-1.7 1.1-2.5v-.2l-.3.2-1.9 2.5-7.2 10.6c-1.2 1.7-2.4 3.4-3.9 4.9-.5.5-1 .9-1.6 1.1-.6.1-1.1-.1-1.4-.6-.3-.6-.3-1.3-.1-2 .2-.9.7-1.7 1.2-2.5l4.5-7.7c.6-1 1.1-2 1.4-3.2.2-.8.3-1.6.1-2.4.3 0 .2-.1.1-.3zm23.6 14.7c-.4.4-.7.8-1 1.2-.7.8-1.4 1.7-2.2 2.5-.3.4-.7.6-1.2.7-.6.2-1.5-.3-1.4-1.3.1-.7.5-1.3.9-1.9.2-.2.4-.5.5-.7l.1-.1c.2-.2.4-.2.5-.1.2.2 0 .4 0 .5-.1.3-.3.5-.5.7-.2.3-.1.6.1.8.2.2.5.2.8 0 .5-.4 1-.8 1.4-1.2.6-.6 1.1-1.3 1.6-1.9.1-.1.1-.3.1-.4l-1-4v-.1c-.2-.4-.4-.5-.8-.2-.6.3-.9.8-1.2 1.3-.2.5-.4.9-.7 1.4l-.1.3c-.1.1-.2.2-.3.1-.1 0-.2-.2-.2-.3l.1-.6c.4-1 .8-1.9 1.6-2.6 1.1-1 2.6-.8 3.4.4.4.6.6 1.3.7 1.9l.1.5c.1-.1.1-.2.2-.2l2-2.4c.2-.2.4-.5.7-.7.4-.3.9-.4 1.3-.1.4.2.5.6.5 1-.1.7-.4 1.3-.7 1.9-.1.3-.3.6-.5.8-.1.2-.3.3-.5.2-.2-.1-.2-.3-.1-.5l.3-.8c.1-.2 0-.5-.2-.6-.1-.1-.4-.1-.5 0-.4.3-.7.6-1 .9l-1.2 1.4c-.1.1-.1.2-.1.3l1 4.3c.1.6.3.6.8.2.6-.6 1-1.2 1.3-1.9.2-.3.3-.4.5-.3.2.1.2.3.1.6-.4.8-.9 1.4-1.4 2-.4.5-.9.8-1.5 1-.6.1-1.1 0-1.4-.6-.2-.4-.4-.9-.5-1.3-.2-.7-.3-1.4-.4-2.1zm14.6 4.2c-1.3 0-2.1-.7-2.2-1.9-.1-1 .1-1.9.4-2.9.4-1.4 1.1-2.7 2.1-3.8.8-.9 1.8-1.6 3-2 .6-.2 1.2-.2 1.8 0 .9.3 1.3 1.3.8 2.2-.4.8-1 1.4-1.7 1.9-1.2 1-2.6 1.7-4 2.4-.1.1-.3.2-.3.3-.2.7-.3 1.4-.1 2.1.1.3.2.7.5.8.2 0 .4 0 .6-.1.7-.3 1.4-.7 2-1.2.8-.6 1.5-1.3 2.1-2.1l.1-.1c.1 0 .3-.1.4 0 .1.1.1.2 0 .4-.2.3-.5.7-.8 1-.9 1-1.9 1.9-3.2 2.6-.4.1-1 .4-1.5.4zm.3-4.8h.2c1.1-.5 2.1-1.2 3-2 .7-.6 1.3-1.3 1.5-2.2.2-.5-.2-.9-.7-1-.5 0-.9.2-1.2.5-.7.5-1.1 1.1-1.6 1.8-.5.9-.9 1.9-1.2 2.9zm-3.1-4.1c0 .6-.2 1.1-.5 1.6l-3 5.7c-.1.2-.2.4-.2.6-.1.2.1.3.3.2s.5-.3.6-.5c.4-.5.8-1 1.2-1.6l.1-.2.4-.1c.1 0 .2.2.1.3-.1.3-.3.7-.5 1-.4.6-.8 1.1-1.4 1.4-1.2.6-2-.2-2.2-1.1-.2-.7 0-1.4.3-2l2.5-4.8c.3-.5.5-1 .7-1.5v-.3h-.4c-.2.1-.4.3-.5.4l-1.1 1.4-.2.3c-.1.1-.3.1-.4.1-.1 0-.1-.3-.1-.4.5-1 1.1-1.9 2.1-2.4.8-.4 1.7 0 2 .9.1.5.2.8.2 1zm-.5-4.5c0-.6.5-1.3 1.1-1.5.5-.1.9.2.9.7 0 .6-.5 1.3-1.1 1.5-.5.2-.9-.1-.9-.7zM301.4 95.4l-1.3-.5-17.6 6.7v29.3l17.6 12.7 1.3-.9v-47.3zm1.9 6.2v3.3h11.2v25.9l-11.2 8.1v2.4l14.5-10.5v-29.2h-14.5zM331.2 114.4h-3.5v-12.6h3.4c2.3 0 3.4 1.1 3.4 3.5v.2c0 1.4-.7 2.2-1.3 2.4.6.2 1.5 1 1.5 2.6v.2c0 2.8-1.4 3.7-3.5 3.7zm-.2-10.5h-.9v3h.9c1 0 1.2-.6 1.2-1.5 0-1-.3-1.5-1.2-1.5zm.1 5.2h-1v3.3h1c1 0 1.3-.6 1.3-1.7s-.3-1.6-1.3-1.6zm8.3 5.5c-2.1 0-3.5-1.1-3.5-3.8v-8.9h2.3v8.9c0 1.3.2 1.7 1.1 1.7s1.1-.5 1.1-1.7v-8.9h2.3v8.9c.1 2.7-1.2 3.8-3.3 3.8zm5.2-.2v-12.6h2.3v12.6h-2.3zm4.1 0v-12.6h2.3v10.5h3.6v2.1h-5.9zm10.4 0h-3.3v-12.6h3.3c2 0 3.5.8 3.5 3.8v5.1c-.1 2.8-1.4 3.7-3.5 3.7zm1.1-8.7c0-1.4-.5-1.8-1.2-1.8h-.9v8.3h.8c.8 0 1.3-.6 1.3-1.8v-4.7zm3.8 8.7v-12.6h5.9v2.1h-3.5v3.1h3v2.1h-3v3.2h3.5v2.1h-5.9zm11.8 0l-1.6-5h-.7v5h-2.3v-12.6h3.6c2.3 0 3.2 1.3 3.2 3.6v.3c0 1.9-.7 2.8-1.7 3.2l1.9 5.5h-2.4zm-.2-8.8c0-1.1-.3-1.6-1.2-1.6h-.9v3.4h.9c.8 0 1.2-.5 1.2-1.6v-.2zm6.6 9c-2.2 0-3.3-1.2-3.4-3.6h2.3c.1 1 .4 1.5 1.1 1.5.8 0 1.2-.5 1.2-1.5 0-.6-.1-1-.3-1.3-.2-.2-.4-.3-.9-.5l-.5-.1c-1-.3-1.6-.6-2-1.2-.5-.7-.6-1.6-.6-2.7 0-2.3 1.2-3.4 3.3-3.4 2.1 0 3.1 1 3.3 3.5h-2.3c-.1-1-.3-1.4-1-1.4s-1 .4-1 1.3c0 .5.1.9.2 1.1.2.3.4.4 1 .5l.4.1c1 .3 1.6.5 2 1 .6.6.8 1.6.8 2.9-.1 2.7-1.4 3.8-3.6 3.8zm-49.3 16.3l-.7-2.9h-3.6l-.6 2.9h-.9l2.9-12.6h.8l3 12.6h-.9zm-2.2-9.7l-.2-1.2-.2 1.2-1.3 6h3.2l-1.5-6zm7.3 9.8c-1.4 0-2.9-.7-2.9-3.6v-5.7c0-2.9 1.5-3.6 2.9-3.6 1.5 0 2.7.8 2.8 3.3h-.9c-.1-1.5-.4-2.4-1.9-2.4-1 0-2 .4-2 2.9v5.3c0 2.6.9 2.9 2 2.9 1.3 0 1.8-.7 1.9-2.6h.9c0 2.3-.9 3.5-2.8 3.5zm9.6-.1l-.7-2.9h-3.5l-.6 2.9h-.9l2.9-12.6h.8l3 12.6h-1zm-2.2-9.7l-.2-1.2-.2 1.2-1.3 6h3.2l-1.5-6zm7.3 9.7h-2.6v-12.6h2.5c1.9 0 3.2 1 3.2 3.6v5.5c.1 1.9-.9 3.5-3.1 3.5zm2.3-8.9c0-2.4-1-2.9-2.4-2.9h-1.5v11h1.5c1.6 0 2.4-1 2.4-2.9v-5.2zm3.1 8.9v-12.6h5.1v.8h-4.2v5h3.4v.8h-3.4v5.2h4.2v.8h-5.1zm13.6 0v-8.6l.1-1.5-.3 1.1-2.1 7.1h-.8l-2.2-7.1-.3-1.1.1 1.5v8.6h-.9v-12.6h.9l2.8 9.4 2.7-9.4h.9v12.6h-.9zm5.9-5.2v5.1h-.9v-5.1l-2.6-7.5h1l1.7 5.1.4 1.3.4-1.3 1.7-5.1h1l-2.7 7.5zm-47.7 17.9l-.3-1.4h-1.8l-.3 1.4h-.5l1.5-6.3h.4l1.5 6.3h-.5zm-1.1-4.8l-.1-.6-.1.6-.7 3h1.6l-.7-3zm3.9 4.9c-1 0-1.5-.5-1.5-1.7v-4.6h.5v4.5c0 1 .3 1.4 1 1.4s1-.3 1-1.4v-4.5h.5v4.6c-.1 1.2-.6 1.7-1.5 1.7zm4 0c-.9 0-1.3-.5-1.4-1.4h.5c.1.7.4 1 .9 1 .7 0 1-.3 1-1.3 0-.5 0-.8-.2-1-.1-.2-.3-.2-.6-.4l-.4-.1c-.5-.2-.6-.3-.8-.5-.2-.3-.3-.6-.3-1.1 0-1.1.5-1.5 1.4-1.5.7 0 1.3.3 1.3 1.3h-.5c0-.6-.3-.9-.9-.9s-.9.3-.9 1.1c0 .4.1.7.2.9l.6.4.3.1c.4.2.6.3.8.5.3.3.3.7.3 1.3.2 1.1-.4 1.6-1.3 1.6zm3.7-5.9v5.9h-.5v-5.9h-1.2v-.4h2.9v.4h-1.2zm4.8 5.8l-1.2-2.9h-.8v2.9h-.5v-6.3h1.4c1 0 1.4.6 1.4 1.6v.2c0 .9-.4 1.4-1.1 1.5l1.2 2.9h-.4v.1zm-.2-4.6c0-.9-.3-1.2-1-1.2h-.9v2.6h.9c.7 0 1-.3 1-1.2v-.2zm4.2 4.6l-.3-1.4h-1.8l-.3 1.4h-.5l1.5-6.3h.4l1.5 6.3h-.5zm-1.1-4.8l-.1-.6-.1.6-.7 3h1.6l-.7-3zm2.6 4.8v-6.3h.5v5.9h2.1v.4h-2.6zm3.7 0v-6.3h.5v6.3h-.5zm4.4 0l-.3-1.4h-1.8l-.3 1.4h-.5l1.5-6.3h.4l1.5 6.3h-.5zm-1.1-4.8l-.1-.6-.1.6-.7 3h1.6l-.7-3zM555.3 99.2c-5.9 0-10.8 4.8-10.8 10.8 0 5.9 4.8 10.8 10.8 10.8 5.9 0 10.8-4.8 10.8-10.8s-4.8-10.8-10.8-10.8zm0 19c-4.5 0-8.2-3.7-8.2-8.2s3.7-8.2 8.2-8.2 8.2 3.7 8.2 8.2c.1 4.5-3.6 8.2-8.2 8.2zm51.4.9c0 .7.6 1.3 1.3 1.3s1.3-.6 1.3-1.3v-17.3h3.4c.7 0 1.3-.6 1.3-1.3 0-.7-.6-1.3-1.3-1.3h-9.5c-.7 0-1.3.6-1.3 1.3 0 .7.6 1.3 1.3 1.3h3.5v17.3zm40.3-15.3c-.5-1.4-1.5-2.5-2.7-3.2-1-.6-2-1-3.2-1.2-1-.2-2-.2-2.9-.2h-.8c-.5 0-.9.1-1.2.4-.5.5-.5 1-.5 1.2v18.2c0 .7.6 1.3 1.3 1.3s1.3-.6 1.3-1.3v-5.1h1.4c1.9-.1 3.5-.5 4.8-1.5 1.5-1.1 2.5-2.5 2.9-4.4.3-1.4.1-2.9-.4-4.2zm-8.7 7.6v-9.7c.8 0 1.6 0 2.4.1.9.1 1.6.4 2.3.8.8.5 1.4 1.2 1.7 2 .3.9.4 1.8.2 2.9-.2 1.2-.8 2.1-1.8 2.8-.9.7-2.1 1-3.5 1-.4.1-.9.1-1.3.1zm-4.1-1.5c0-5.9-4.8-10.8-10.8-10.8-5.9 0-10.8 4.8-10.8 10.8 0 5.9 4.8 10.8 10.8 10.8s10.8-4.8 10.8-10.8zm-2.5 0c0 4.5-3.7 8.2-8.2 8.2s-8.2-3.7-8.2-8.2 3.7-8.2 8.2-8.2 8.2 3.7 8.2 8.2zm-53.9-10.7c-5.9 0-10.8 4.8-10.8 10.8 0 5.9 4.8 10.8 10.8 10.8 5.9 0 10.8-4.8 10.8-10.8s-4.8-10.8-10.8-10.8zm8.3 10.7c0 4.5-3.7 8.2-8.2 8.2s-8.2-3.7-8.2-8.2 3.7-8.2 8.2-8.2 8.2 3.7 8.2 8.2zm4.2-1.5v10.7c0 .7.6 1.3 1.3 1.3s1.3-.6 1.3-1.3v-9.5h6.4c.7 0 1.3-.6 1.3-1.3 0-.7-.6-1.3-1.3-1.3h-6.4v-5.2h6.4c.7 0 1.3-.6 1.3-1.3s-.6-1.3-1.3-1.3h-7.3c-1 0-1.7.7-1.7 1.7v7.5zm-48.1 12c.2 0 .5-.1.7-.2.3-.2.5-.5.5-.8.1-.3 0-.7-.2-.9l-3.6-5.3c.9-.5 1.7-1.1 2.3-1.8.9-1.1 1.4-2.4 1.5-3.9.1-.7 0-1.4-.1-2.1-.3-1.4-.9-2.6-1.8-3.6-1.3-1.3-3-2.1-5.2-2.3-.8-.1-1.7-.1-2.5-.1h-.4c-1.1 0-1.8.6-1.8 1.8v17.9c0 .7.6 1.3 1.3 1.3s1.3-.6 1.3-1.3v-5.1h1.3c.6 0 1.2-.1 1.6-.2l4 5.9c.3.5.7.7 1.1.7zm-5.3-9c-.2 0-.6.1-1 .1h-1.7v-9.7c.6 0 1.2 0 1.8.1 1.6.1 2.8.7 3.7 1.6.6.6 1 1.3 1.1 2.2.1.5.1.9.1 1.4v.4c-.1.8-.4 1.5-.9 2.1-.7 1-1.8 1.5-3.1 1.8zm18.3 27.4c-.2-.3-.5-.4-.8-.5-.3 0-.7.1-.9.3-1.2 1.1-2.9 1.7-4.9 1.7-4.9 0-8-4.3-8-8.3 0-5.2 4.2-8.3 8-8.3 1.9 0 3.7.6 4.9 1.7.2.2.6.3.9.3.3 0 .6-.2.8-.5l.1-.1c.3-.5.3-1.1-.2-1.5-1.6-1.5-4-2.4-6.5-2.4-2.7 0-5.3 1.1-7.3 3-2.1 2-3.3 4.8-3.3 7.8 0 6.7 5.5 10.8 10.6 10.8 2.5 0 4.9-.9 6.5-2.4.4-.4.5-1.1.2-1.5l-.1-.1zm4.1-17.4h-.3c-.6 0-1.2.5-1.2 1.2v18.9c0 .6.5 1.2 1.2 1.2h.2c.6 0 1.2-.5 1.2-1.2v-18.9c0-.7-.5-1.2-1.1-1.2zm26.8 0h-.2c-.6 0-1.2.5-1.2 1.2v14.7c-.3-.5-.7-1-1.4-1.6-1.4-1.1-2.5-1.2-3.4-1.4-.8-.1-1.3-.2-2.1-.8-.8-.7-1-1.2-1.3-1.9-.3-.8-.7-1.9-2-3-1.4-1.1-2.5-1.2-3.4-1.4-.8-.1-1.3-.2-2.1-.8-.8-.7-1-1.2-1.3-1.8-.3-.8-.7-1.8-2-2.8-.1-.1-.1-.1-.2-.1-.2-.1-.4-.2-.6-.2h-.2c-.6 0-1.2.5-1.2 1.2v18.9c0 .6.5 1.2 1.2 1.2h.2c.6 0 1.2-.5 1.2-1.2v-14.9c.3.5.7 1.1 1.5 1.6 1.4 1.1 2.5 1.2 3.3 1.4.8.1 1.3.2 2.1.8.8.7 1 1.2 1.3 1.9.3.8.7 1.9 2 3s2.5 1.2 3.4 1.4c.8.1 1.3.2 2.1.8.8.7 1 1.2 1.3 1.9.3.8.7 1.8 2.1 2.9.2.2.5.3.8.3h.2c.6 0 1.2-.5 1.2-1.2v-18.9c-.1-.7-.6-1.2-1.3-1.2zm13.4 18.7h-6.9v-8.5h6.3c.6 0 1.2-.5 1.2-1.2v-.2c0-.6-.5-1.2-1.2-1.2h-6.3v-5.3h6.3c.6 0 1.2-.5 1.2-1.2v-.2c0-.6-.5-1.2-1.2-1.2h-7.7c-.6 0-1.2.5-1.2 1.2v18.9c0 .6.5 1.2 1.2 1.2h8.3c.6 0 1.2-.5 1.2-1.2v-.2c0-.4-.5-.9-1.2-.9zm22.4-18.5c-.5-.1-1 .1-1.3.5l-7.4 12.4-7.4-12.4c-.3-.4-.8-.7-1.3-.5-.5.1-.8.6-.8 1.1v18.7c0 .6.5 1.2 1.2 1.2h.2c.6 0 1.2-.5 1.2-1.2v-13.8l6.1 10c.2.3.6.6 1 .6s.8-.2 1-.6l6.1-10v13.8c0 .6.5 1.2 1.2 1.2h.2c.6 0 1.2-.5 1.2-1.2v-18.7c-.4-.5-.7-.9-1.2-1.1zm11.5.8c-.2-.5-.6-.8-1.1-.8s-.9.3-1.1.8l-6.2 18.7c-.1.4-.1.7.2 1 .2.3.6.5.9.5h.2c.5 0 .9-.3 1.1-.8l1.3-3.8h7.3l1.3 3.8c.2.5.6.8 1.1.8h.2c.4 0 .7-.2.9-.5s.3-.7.2-1l-6.3-18.7zm1.7 13.2h-5.7l2.9-8.5 2.8 8.5zM702.5 18c3.1-.2 6.3.1 9.5-.1h1.7v1.1c-.7.1-1.5.2-2.1.8-.4.5-.5 1.2-.5 1.9-.1 5.7.1 11.4-.1 17.1-.3 2-1 4.2-2.9 5.2-2.3 1.3-5.2 1.4-7.7.5-2.2-.8-3.3-3.1-3.6-5.3h1.3c.3.9.7 1.7 1.4 2.3 1.3 1.3 3.8 1.4 5-.2.8-1.1.8-2.5.9-3.8v-15.7c0-.9-.1-2.1-1-2.5-.6-.2-1.3-.3-1.9-.4v-.9zm12.8-.1c3.8 0 7.5-.1 11.3 0v1c-1.3.1-3 .5-2.9 2.1-.2 5.5 0 11-.1 16.5 0 1.4-.2 3.1.7 4.3 1.4.6 3 .5 4.5.4 1.8-.1 3.2-1.5 3.9-3.1h1.4l-1.8 5.2h-16.9v-1c.7-.2 1.5-.2 2-.8.5-.5.5-1.3.5-2v-18.7c0-.7 0-1.5-.5-2.1s-1.3-.6-2-.8c-.1-.3-.1-.6-.1-1zM733.9 18c2.7-.2 5.5 0 8.2-.1 1 0 2.1 0 3.1.1v1c-.8.2-1.9.2-2.5.9-.5.8-.4 1.8-.5 2.7v16c0 1 0 2 .4 2.9.5.8 1.6.9 2.5.9 1.3 0 2.7.2 3.9-.5 1.1-.5 1.8-1.6 2.4-2.6h1.3l-1.8 5.2h-17l-.1-.9c.7-.2 1.6-.2 2.1-.8.6-.6.5-1.5.6-2.3v-18.9c0-.8-.3-1.5-1-2l-1.6-.4v-1.2zM657.9 14.9c1.9-3 5-5.7 8.8-5.7 1.5-.3 2.8.9 4.2.4 2-.7 4.2-.6 6.1.3 1.6-.7 3.4-.8 5.1-.6 3.4.7 6 3.4 7.6 6.3 3.7 6.5 4.4 14.3 3.3 21.6-.9 5.1-2.9 10.4-7 13.8-2.5 2.1-6 2.7-9 1.4-1.2.4-2.4.8-3.6.7-1.2.1-2.2-.4-3.3-.7-2.1.9-4.5 1-6.5.1-3.2-1.3-5.4-4.3-6.9-7.3-2.7-5.6-3.4-12.1-2.8-18.3.5-4.2 1.7-8.4 4-12zm2.5 2.1c-2.9 6.1-3.4 13.2-2.5 19.8.9 6.2 3.6 12.4 8.8 16.2 4.3-3.1 6.9-8.1 8.2-13.1 1.5-6.1 1.4-12.6-.3-18.6-.8-2 .7-3.8 1.5-5.5 2.6 4.6 3.6 10.1 3.7 15.4-.1 5.1-1 10.2-3.4 14.8-.3.5-.7 1-.8 1.6.1.6.7 1 .8 1.5-.4.8-1 1.3-1.5 1.9l-1.2-1.1c-.7.4-1.2 1-1.9 1.5.5.6 1.2 1.1 1.8 1.6 2.9-2.1 5.1-5.2 6.6-8.5 2-4.5 2.7-9.4 2.6-14.3-.1-5.9-1.5-12.1-5.1-16.9.5-.7.9-1.5 1.7-2 1.3 1.1 2.4 2.5 3.3 3.9 2.9 4.8 4.1 10.6 3.9 16.2.1 4.1-.7 8.2-2.2 12-1.2 3-3 5.7-5.5 7.8-.3.9 1.1 1.3 1.6 1.8 3-2.1 5.2-5.3 6.6-8.7 1.9-4.3 2.5-9.1 2.6-13.8-.2-2.2-.2-4.5-.7-6.7-1.1-5.6-3.8-11.1-8.4-14.6-1.4.8-2.5 2-3.5 3.3-4.1 5.2-5.8 11.9-5.7 18.3-.1 3.5.3 7.1 1.4 10.5.1.4.3.7.1 1.1-.4 1.4-1.1 2.6-1.7 4-2.5-4-3.4-8.8-3.7-13.5-.2-6.2.8-12.8 4.2-18.1-.3-.5-.6-1-1-1.5.5-.7 1-1.4 1.6-2 .4.4.8.8 1.2 1.1.6-.6 1.2-1.1 1.8-1.6-.6-.6-1.2-1.1-1.8-1.6-1.5 1-2.8 2.4-3.9 3.9-3.8 5.1-5.3 11.5-5.3 17.8-.1 6.1 1.3 12.4 4.7 17.5.7 1-.8 1.8-1.2 2.6-3.4-2.9-5.3-7.1-6.4-11.3-1.5-6.2-1.3-12.8.6-19 1.2-3.7 3.2-7.4 6.3-9.8-.3-.7-1.2-1.1-1.7-1.6-2.7 1.8-4.7 4.7-6.2 7.7zM108.7 195.5v28.7h6.6v-28.7h-6.6zm1.1.9h1.9l1.4 2.3h-3.2l-.1-.2v-2.1zm0 2.9l1.3 2.3h-1.3v-2.3zm0 2.7h1.4l1.4 2.5h-2.8v-2.5zm0 2.8h3l1.4 2.5h-3.8l-.5-1.1-.1-1.4zm0 2.2l.2.3h-.2v-.3zm0 .6h.3l1.2 2.5h-1.5v-2.5zm0 2.9h1.7l1.2 2.5h-2.9v-2.5zm0 2.8h3l1.2 2.5h-4.2v-2.5zm0 3.9l.6 1.5h-.6v-1.5zm0 1.8h.7l1 2.5h-1.8v-2.5h.1zm0 4.1v-1.2h1.9l.5 1.2h-2.4zm4.5 0h-1.7l-.5-1.2h2.2v1.2zm0-1.6h-2.4l-1-2.5h3.4v2.5zm0-2.9h-3.5l-1-2.4v-.1h4.4l.1.2v2.3zm0-3l-1.1-2.3h1.1v2.3zm0-2.6h-1.3l-1.2-2.5h2.5v2.5zm0-2.9h-2.6l-1.2-2.5h3.8v2.5zm0-3.2l-1.1-2.1h1.1v2.1zm0-2.4h-1.3l-1.4-2.5h2.7v2.5zm0-2.9h-2.9l-1.4-2.5h3.2l1 1.6v.9h.1zm0-1.5l-.6-1h.6v1zm0-1.3h-.8l-1.4-2.3h2.3l-.1 2.3zm-97.6-3.3l-5.1 11.7-5.1-11.7h-6.5v28.7h6.6v-13.1l2.6 6h4.7l2.6-6v13.1h6.6v-28.7h-6.4zm5.4 17.5h-2.1l2.1-2.3v2.3zm0-2.9h-3.9l2.5-2.5h1.4v2.5zm-1.1-2.8l1.1-1.1v1.1h-1.1zm1.1-2.8h-2.3l2.3-2.2v2.2zm-2.5-.3l1-2.2h1.3l-2.3 2.2zm2.5.6v.9l-1.6 1.6h-2.3l1-2.3.2-.2h2.7zm-1.9 2.8l-2.5 2.5h-.1v-1.4l.5-1.1h2.1zm-2.3 2.9h4l-2.3 2.5h-2v-2.2l.3-.3zm1.3 2.8l-1.6 1.8v-1.8h1.6zm.5 0h2.4v2.1l-.5.6h-4v-.4l2.1-2.3zm1.6 3.1l-1.9 2.3h-1.8v-2.3h3.7zm-2.2 2.6l-1.5 1.8v-1.8h1.5zm.4 0h2.6v2.5h-4.5v-.2l1.9-2.3zm.3-.4l1.9-2.3h.4v2.3h-2.3zm2.3-17h-1.4l1.4-3.1v3.1zm-10.4 8.5h-2.3l1.7-1.5.6 1.5zm-1.2-2.8h-2.1l1.5-1.3.6 1.3zm-5.7-2.8l-.3-.6 2.5-1.9h1.1l.6 1.3-1.5 1.2h-2.4zm2 .3l-1.4 1.1-.4-1.1h1.8zm-3.2-5.7h3l-3.2 2.3-.7-1.7.9-.6zm-1 .3l-.1-.3h.5l-.4.3zm4.4-.1l.8 1.7-.8.6h-3.3l3.3-2.3zm.9 2.1l.1.3h-.5l.4-.3zm-1.4.6l-2.1 1.6-.7-1.6h2.8zm2.4 1.6l.4.9h-1.5l1.1-.9zm-2.2-4.8h-2.6l2-1.4.6 1.4zm-.9-2.3l.2.6-2.5 1.7h-1.2l-.4-.9 2.1-1.3h1.8v-.1zm-2.4 0l-1.6 1-.5-1h2.1zm2.2 26.6h-4.6v-24.7l4.5 10.2.1 14.5zm0-16.9l1.8-1.4h2.1l.4.9-1.9 1.6h-1.9l-.5-1.1zm.9 2.2l-.3-.8h1.2l-.9.8zm.2.3l1.3-1.1h2.7l.3.7-2.1 1.8h-1.6l-.6-1.4zm.8 1.8h1l-.7.7-.3-.7zm.4 1l1.1-1h2.9l.3.7-1.9 1.8h-1.7l-.7-1.5zm5 1.5h-2.1l1.5-1.4.6 1.4zm-3.8 1.1l-.4-.8h1.3l-.9.8zm.8 1.9l-.7-1.5 1.2-1.2h2.6l.5 1.1-1.6 1.6h-2zm3.3 0h-.8l1.3-1.3.1.1-.6 1.2zm1.1-2.5l-2.2-5.1 5.3-11.9h4.4l-7.5 17zm3.3 9.6v-1.3h4.3l-1 1.3h-3.3zm3.7 0l.8-1v1h-.8zm51.2-27.6l-.9 3.7-1.3 5.5-1 4.3-3.2-13.4h-6.5l6.7 28.7h5.8l6.7-28.7h-6.3v-.1zm-5.2 9.3l.5 2.2-.1.3h-3.9l.7-2.5h2.8zm-2.6-.3l.7-2.5h1.2l.6 2.5h-2.5zm3.3 3.3l.6 2.4h-1.1l.5-2.4zm.6 2.7l.6 2.5h-2.3l.5-2.5h1.2zm.7 2.8l.6 2.5h-3.6l.5-2.5h2.5zm-2.8-11.7h-1l.6-2 .4 2zm-1.2-5.2l.5 2.3h-3.2l.8-2.3h1.9zm-4.3 0h2.2l-.8 2.3h-.8l-.6-2.3zm.6 2.7h.6l-.4 1.1-.2-1.1zm.4 1.7l.6-1.7h3.3l-.7 2.5h-3l-.2-.8zm.3 1.2h2.7l-.7 2.5h-1.5l-.5-2.5zm1.2 5.3l-.6-2.5h1.3l-.7 2.5zm.2.7l.1-.4h3.9l-.5 2.5h-2.9l-.6-2.1zm.6 2.5h2.7l-.5 2.5h-1.7l-.5-2.5zm1.4 6.1l-.1-.5h.2l-.1.5zm-.2-.8l-.6-2.5h1.5l-.5 2.5h-.4zm.4 1.6l.3-1.2h3.8l1.3 5.3h-1l.4-2.5-.2-1-.1.7h-4.1l-.4-1.3zm.4 1.6h4l-.4 2.5h-3l-.6-2.5zm.6 2.8h2.9l-.2 1.2h-2.4l-.3-1.2zm4.5 1.3h-1.4l.2-1.2h1.1l.2.8-.1.4zm.6-2.7l-2.2-9.2 3.5-14.7h4.3l-5.6 23.9zm9.1-24.9v28.7h6.6v-28.7h-6.6zm5.5 14.6h-2.2l-.2-2.5h2.4v2.5zm0 .4v2.5h-2l-.2-2.5h2.2zm0 2.8v2.5h-1.8l-.2-2.5h2zm0 2.8v2.5h-1.6l-.2-2.5h1.8zm-1.6 2.9h1.6v2.5h-1.5l-.1-2.5zm1.6-11.7h-2.4l-.2-2.5h2.6v2.5zm0-5.3v2.5h-2.6l-.2-2.5h2.8zm-2.7-.4l-.2-2.5h2.9v2.5h-2.7zm2.7-5.2v2.3h-3l-.2-2.3h3.2zm-4.5 0h1.1l.2 2.3h-1.2l-.1-2.3zm0 2.7h1.2l.2 2.5h-1.4v-2.5zm0 2.9h1.4l.2 2.5h-1.6v-2.5zm0 2.8h1.6l.2 2.5h-1.8v-2.5zm0 2.8h1.8l.2 2.5h-2v-2.5zm0 2.9h2l.2 2.5h-2.1l-.1-2.5zm0 2.8h2.2l.2 2.5h-2.3l-.1-2.5zm0 2.8h2.3l.2 2.5h-2.5v-2.5zm0 2.9h2.5l.2 2.5h-2.7v-2.5zm0 2.8h2.7l.1 1.2h-2.8v-1.2zm3.2 1.3l-.1-1.2h1.5v1.2h-1.4zm46.4-27.6h-8c-2.3 0-4.1 1.9-4.1 4.1v20.4c0 2.3 1.9 4.1 4.1 4.1h8c2.3 0 4.1-1.9 4.1-4.1v-20.4c0-2.3-1.8-4.1-4.1-4.1zm3.1 17.2l-1.9-2.3h1.9v2.3zm0 3h-2.3l-1.8-2.4h4.2l-.1 2.4zm0 .4v2.4h-.2l-1.8-2.4h2zm0-6h-2.1l-2.1-2.5h3.8l.4.5v2zm0-2.8h-.3l-2.2-2.5h2.5v2.5zm0-7.4v1.7h-1.5l-2.4-2.5h3.2l.7.8zm-.3-.8h.3v.3l-.3-.3zm.3 2.9v1.3l-1.2-1.3h1.2zm-.1-3.2h-.6l-2.4-2.3c1.4-.1 2.6.9 3 2.3zm-4.4-2.4h.9l2.4 2.3h-3.1l-.2-.2v-2.1zm0 5v-2.3h.1l2.4 2.5h-2.5v-.2zm0 .6h2.8l1.7 1.7v.7h-2.8l-1.7-1.9v-.5zm0 1.1l1.2 1.4h-1.2v-1.4zm0 1.7h1.5l2.2 2.5h-3.8v-2.5h.1zm0 3l1.9 2.3h-1.9v-2.3zm0 2.7h2.2l2.1 2.5h-4.2l-.1-.1v-2.4zm0 2.9l1.8 2.3h-1.8v-2.3zm0 2.7h2l1.8 2.4h-3.9l.1-2.4zm-.9 2.7l1.8 2.7h-4.8l-.3-.4v-2.2h3.3v-.1zm-4.3 4.3h-1.4c-1.7 0-3.1-1.4-3.1-3.1v-20.4c0-1.7 1.4-3.1 3.1-3.1h5.5v4.2h-4.1v22.4zm1-21.3h3.1v16.1h-3.1v-16.1zm0 21.3v-1.2h.1l.8 1.2h-.9zm5.6 0h-4.3l-.8-1.2h4.8l.8 1.2c-.1-.1-.3 0-.5 0zm.9-.2l-.8-1.1h2.3c-.3.5-.9.9-1.5 1.1zm1.8-1.4h-2.8l-1.8-2.7h4.6l.4.5v.6c0 .6-.2 1.1-.4 1.6zm18.2-26v13.6l-6.4-13.6h-6.2v28.7h6.6v-13.9l6.4 13.9h6.2v-28.7h-6.6zm1.1 1.9l2.1 1.4h-2.1v-1.4zm0 2.7l2.1 1.5h-2.1v-1.5zm0 2.8l2 1.6h-2v-1.6zm0 3.1l1.6 1.3h-1.6v-1.3zm0 3.5l.7.6h-.7v-.6zm0 1h1.1l2.9 2.5h-4v-2.5zm-.6 2l-2.2-2h1.3l.9 2zm-1.1-2.4h-1.5l-2.8-2.5h3.1l1.2 2.5zm-1.9-4.1l-1.4-1.2h.9l.5 1.2zm-.8-1.5h-1.1l-2.9-2.5h2.9l1.1 2.5zm-4.5-2.5l2.9 2.5h-2.6l-1.2-2.5h.9zm-1.1-.4l-.4-.9 1.1.9h-.7zm4.3 0h-3.1l-1.9-1.6-.4-.9h2.5l2.8 2.3.1.2zm-.4-.9l-2-1.6h1.2l.8 1.6zm-2-4.3l1.1 2.3h-1.5l-2.9-2.3h3.3zm-3.9 0l2.9 2.3h-2.2l-1.1-2.3h.4zm3.8 26.7h-4.5v-24.8l4.5 9.7v15.1zm0-17.6l-.3-.7h2.9l2.3 2 .2.5h-3.3l-1.6-1.5-.2-.3zm.6 1.1l.8.7h-.5l-.3-.7zm.5 1h.7l2.8 2.5h-2.3l-1.2-2.5zm2.4 5.4l-1.1-2.5h2.5l2.8 2.5h-4.2zm4.2.3h.3l1.2 1.1 1.6 1.4h-4.3l-2.6-2.5h3.8zm-3.8.5l2.1 2h-1.1l-1-2zm1.1 2.3h1.3l2.6 2.5h-2.8l-1.1-2.5zm2.4 5.4l-1.2-2.5h3l2.6 2.5h-4.4zm5.3 1.6h-4.5l-.6-1.2h4.6l.5.5v.7zm0-1.6h-.4l-2.6-2.5h2.9v2.5h.1zm0-8.1v5.3h-3.3l-2.6-2.5h4.3l1.6 1.4v-.5l-1.1-1h1.1v-.3h-1.4l-2.8-2.5 4.2.1zm0-.5l-2.9-2.5h2.9v2.5zm0-2.8h-3.3l-1.2-1v-1.5h2l2.5 2v.5zm0-.9l-2-1.6h2v1.6zm0-1.9h-2.4l-2.1-1.7v-.8h2.5l2 1.5v1zm0-1.4l-1.5-1.1h1.5v1.1zm0-1.4h-1.9l-2.6-2v-.5h2.6l1.9 1.4v1.1zm0-1.6l-1.4-1h1.4v1zm0-1.3h-1.8l-2.7-1.9v-.6h2.6l2 1.3v1.2h-.1zm0-1.5l-1.4-.9h1.4v.9zm0-1.3h-1.9l-2.7-1.8v-.5h2.1l2.4 1.6.1.7zm0-1.2l-1.8-1.2h1.8v1.2zm-59.7 20.3v-22.4h-6.6v28.7h14.1v-6.3h-7.5zm-1-21.5v2.3h-2.5l-.6-2.3h3.1zm0 5.6v2.5h-.9l-.7-2.5h1.6zm-1.7-.4l-.7-2.5h2.4v2.5h-1.7zm1.7 3.2v2.5h-.2l-.7-2.5h.9zm-4.5-8.4h1.1l.6 2.3h-1.7v-2.3zm0 2.7h1.8l.7 2.5h-2.5v-2.5zm0 2.9h2.6l.7 2.5h-3.3v-2.5zm0 2.8h3.3l.7 2.5h-3.9l-.1-.7v-1.8zm0 3.5l.4 1.8h-.4v-1.8zm0 2.2h.4l.5 2.5h-.9v-2.5zm0 2.8h1l.5 2.5h-1.5v-2.5zm0 2.8h1.6l.5 2.5h-2.1v-2.5zm0 2.9h2.1l.5 2.5h-2.6v-2.5zm4.5 4.1h-4.5v-1.2h2.7l.2 1.2h.3l-.2-1.2h1.5v1.2zm0-1.6h-1.5l-.5-2.5h2v2.5zm0-3.2v.3h-2.1l-.5-2.5h2.6v2.2zm0-2.5h-2.7l-.5-2.5h3.2v2.5zm0-2.8h-3.2l-.5-2.5h3.7v2.5zm-3.8-2.9l-.5-2.5h3.9l.4 1.6v.9h-3.8zm11.3 13h-6.5v-4.2h6.5v4.2zm-49.6-27.6h-5.8l-6.7 28.7h6.5l.8-3.5h4.7l.8 3.5h6.5l-6.8-28.7zm-1.2 17.5l-.6-2.5h3.6l-.9 2.5h-2.1zm2 .3l-.4 1h-1.4l-.2-1h2zm-5.3-.3h-3.4l1.2-2.5h2.8l-.6 2.5zm-.6-5.7l1.2-2.5h3.7l-1.1 2.5h-1.3l-.3-1.2-.9 4h-2.7l1.2-2.5h2.1l.1-.3h-2zm5-8.2l.6 2.5h-2.7l1.2-2.5h.9zm-.8-.3l.4-.9.2.9h-.6zm1.4 3.2l.2.7-.8 1.8h-3.6l1.2-2.5h3zm-.2 2.5l.5-1.2.3 1.2h-.8zm.9.3l.6 2.5h-2.7l1.1-2.5h1zm-4.1 5.9l.9 3.6h-1.7l.8-3.6zm.8-1.4l-.4-1.6h1.1l-.7 1.6zm1.1-1.7h2.9l.4 1.6-.3.9h-3.8l-.1-.3.9-2.2zm3.3 2.5l.1-.2.1.2h-.2zm.2.4l.6 2.5h-1.8l.9-2.5h.3zm-1.3 2.8h2l.2 1h-2.6l.4-1zm-2-16.9l.2.9-.7 1.4h-3.2l1.3-2.3h2.4zm-4.1 0h1.4l-1.3 2.3h-.6l.5-2.3zm-.7 2.7h.5l-.8 1.5.3-1.5zm.9 0h3.3l-1.2 2.5h-3.4l1.3-2.5zm-1.5 2.9h3.4l-1.2 2.5h-2.7l.5-2.5zm-.7 2.8h2.7l-1.2 2.5h-2l.5-2.5zm-.7 2.8h1.9l-1.2 2.5h-1.3l.6-2.5zm-.6 2.9h1.2l-1.2 2.5h-.5l.5-2.5zm-.7 2.8h.4l-.8 1.7.4-1.7zm.8 0h3.5l-.3 1.4-.3 1.1h-4.2l1.3-2.5zm-1.5 3.1l.1-.3h4.3l-.2.9-.7 1.6h-4l.5-2.2zm-.6 2.6h4l-1.1 2.5h-3.5l.6-2.5zm-.7 2.8h3.4l-.5 1.2h-3.2l.3-1.2zm3.3 1.3l.5-1.2h.5l-.3 1.2h-.7zm1.4-2.9l-.3 1.3h-.5l1.1-2.5-.3 1.2zm6.5-.6h-5.3l1-4.2h7.6l1.8 7.7h-4.3l-.8-3.5zm-16.1-24.1h-12.2v28.7h6.6v-10.8h5.6c2.3 0 4.1-1.9 4.1-4.2v-9.6c0-2.3-1.8-4.1-4.1-4.1zm3 3.3h-1.3l.8-1.1c.2.3.4.7.5 1.1zm-3-2.4c.9 0 1.7.4 2.2 1l-1 1.3h-3.2l2-2.3zm.6 8.4l-1.8 2.5h-.3v-4.5l.6-.8h3.4l-1.8 2.5h-2.3v.3h2.2zm-.7 7.5h-4.1l1.3-1.8h4l-1.2 1.8zm-2.7-2.2l1.8-2.5h3.8l-1.6 2.5h-4zm1.4-7.9v-.2h.2l-.2.2zm.4-.6h-.5v-.9h-2.1l1.3-1.6h3.2l-1.9 2.5zm.6-5.2l-2 2.3h-3.2l2.1-2.3h3.1zm-5.2 0h1.7l-1.7 1.8v-1.8zm0 2.7h2.9l-1.3 1.6h-1.6v-1.6zm0 2.7h3.1v5.3h-3.1v-5.3zm0 6.2h3.9l-1.5 2.1h-2.4v-2.1zm-1-7.2v22.3h-4.5v-26.6h4.5v4.3zm1 9.7h2.2l-1.3 1.8h-.9v-1.8zm5.9 1.8l1.2-1.8h1.4c-.6 1-1.5 1.7-2.6 1.8zm2.8-3.1c0 .3-.1.6-.2.9h-1.3l1.4-2.2.1 1.3zm0-2h-3.8l1.8-2.5h2.1l-.1 2.5zm0-2.7h-1.8l1.8-2.5h.1l-.1 2.5zm0-3.2l-.2.3h-3.5l1.9-2.5h1.7v.4l.1 1.8zM709 93.4v11.1h-2.5v-11.1h-3.6v-2.2h9.8v2.2h-3.7zm15.5 11v-6.1h-5.7v6.1h-2.5v-13.3h2.5v5h5.7v-5h2.5v13.3h-2.5zm6.9 0v-13.3h9.5v2.2h-7v3.1h6.4v2.1h-6.4v3.6h7.5v2.2h-10v.1zM727.4 141.6c-1.2.7-2.4.8-3.7.8h-1.9v4.5h-2.5v-13.3h5.5c.6 0 2.3.2 3.5 1.5 1 1.1 1 2.4 1 2.9-.1 2-1.2 3.1-1.9 3.6zm-1.1-5c-.6-1-1.7-1-2.6-1h-1.9v4.6h2.3c1.3-.1 1.8-.5 2.2-1 .1-.2.4-.7.4-1.4-.1-.3-.2-.8-.4-1.2zm12.4 5v5.3h-2.5v-5.3l-4.5-8.1h2.8l2.9 5.5 2.9-5.5h2.8l-4.4 8.1zm-30.4-8.6c-4.1 0-7.3 3.2-7.3 7.3s3.2 7.2 7.3 7.2 7.3-3.2 7.3-7.2c0-4.2-3.2-7.3-7.3-7.3zm0 13.2c-3.3 0-5.9-2.6-5.9-6s2.6-6 5.9-6c3.3 0 5.9 2.6 5.9 6 .1 3.4-2.5 6-5.9 6zM708.4 143.1c-1.2 0-2.1-.9-2.1-2.9s.9-3 2.1-3c1.1 0 1.7.6 1.8 1.7l1.6-.2c-.1-1.5-1.2-2.9-3.4-2.9-2.3 0-3.8 1.8-3.8 4.4 0 2.6 1.4 4.4 3.8 4.4s3.4-1.6 3.6-3l-1.7-.1c-.2 1-.7 1.6-1.9 1.6zM702.4 125.6v-1.1c-1.1 1-2.2 1.5-3.7 1.5-.8 0-2.7-.1-4.3-1.7-.8-.8-2-2.4-2-5.2 0-1.7.5-3.5 1.6-4.8.6-.8 2.2-2.3 4.9-2.3.4 0 1.2 0 2.2.4.9.3 2.5 1.2 3.4 3.5l-2.4.9c-.2-.6-.9-2.6-3.2-2.6-.5 0-1.5.1-2.4 1-.6.7-1.3 1.8-1.3 3.8 0 .5 0 2.5 1.5 3.8.7.5 1.4.8 2.2.8 1.3 0 2.5-.6 3-1.9.1-.3.2-.6.3-1.2h-3.3v-2.2h5.6v7.3h-2.1zm16.7-1.5c-.3.3-1.1 1.1-2.3 1.5-.4.1-1.2.4-2.3.4-1.9 0-3.3-.6-4.6-2.1-1.2-1.4-1.8-3.1-1.8-4.9 0-.4 0-1.5.4-2.6.9-2.7 3.2-4.4 6-4.4 2.6 0 4.1 1.4 4.7 2.1.7.8 1.7 2.3 1.7 4.9 0 .8-.1 3.2-1.8 5.1zm-1.5-8.1c-.7-1.1-1.8-1.8-3.1-1.8-.8 0-1.4.3-1.7.4-.9.5-2.1 1.8-2.1 4.2 0 .5 0 3 1.9 4.2.8.5 1.6.6 2 .6.3 0 .9 0 1.5-.3 1-.5 2.3-1.6 2.3-4.1 0-1.1-.2-2.2-.8-3.2zm17.3 8.1c-.3.3-1.1 1.1-2.3 1.5-.4.1-1.2.4-2.3.4-1.9 0-3.3-.6-4.6-2.1-1.2-1.4-1.8-3.1-1.8-4.9 0-.4 0-1.5.4-2.6.9-2.7 3.2-4.4 6-4.4 2.6 0 4.1 1.4 4.7 2.1.7.8 1.7 2.3 1.7 4.9.1.8 0 3.2-1.8 5.1zm-1.4-8.1c-.7-1.1-1.8-1.8-3.1-1.8-.8 0-1.4.3-1.7.4-.9.5-2.1 1.8-2.1 4.2 0 .5 0 3 1.9 4.2.8.5 1.6.6 2 .6.3 0 .9 0 1.5-.3 1-.5 2.3-1.6 2.3-4.1 0-1.1-.2-2.2-.8-3.2zm14.4 9.3c-1.2.4-2.1.4-3.3.4h-4.2v-13.3h4.8c.6 0 1.3 0 1.9.2.7.1 2.1.6 3.2 2 .6.8 1.4 2.3 1.4 4.6 0 2.5-1 5.2-3.8 6.1zm-.1-9.9c-.2-.2-.7-.5-1.4-.7-.6-.2-1-.2-2.1-.2h-1.3v8.8h.7c1.3 0 2.1 0 2.7-.1.3-.1 1.3-.2 2-1 .8-1.1.8-3 .8-3.2-.1-1.9-.7-3-1.4-3.6zM0 145.7h43.2v-43.3h-43.2v43.3zm25.9-37.5h9.1v2.7h-9.1v-2.7zm-1.3 10.5h11.8v2.7h-11.8v-2.7zm0 7.8h11.9v13.2h-11.9v-13.2zm-17.8-7.7h6.4v-7.8h-5v-2.7h7.7v10.5h2.7v2.7h-11.8v-2.7zm-.8 18.1h7.7l1.6-7.6h-5l-1 4.9h-2.7l1.6-7.7h10.5l-2.7 13.2h-10.6l.6-2.8zM27.3 129.2h6.4v7.8h-6.4v-7.8zm52.7-.4c-1 0-1.8.8-1.8 1.8v4.5c0 1 .8 1.8 1.8 1.8s1.8-.8 1.8-1.8v-4.5c.1-1-.8-1.8-1.8-1.8zM46.9 102.3v43.3h43.2v-43.3h-43.2zm31.8 5.9h2.7v13.7h-2.7v-13.7zm-26.4.1h2.8v9.1c0 1 .8 1.8 1.8 1.8s1.8-.8 1.8-1.8v-9.1h2.8v9.2c0 2.5-2 4.5-4.5 4.5h-.2c-2.5 0-4.5-2-4.5-4.5v-9.2zm6.4 34.1l-.9-2.8c-.3.1-.6.1-.9.1-2.5 0-4.6-2.1-4.6-4.6v-4.5c0-2.5 2.1-4.6 4.6-4.6s4.6 2.1 4.6 4.6v4.5c0 1.3-.5 2.4-1.3 3.3l1.4 4.1h-2.9v-.1zm15.4-2.7h-9.1v-13.7h2.7v11h6.4v2.7zm0-17.8h-2.7l-3.7-7.7v7.7h-2.7v-13.6h2.8l3.7 7.8v-7.8h2.7l-.1 13.6zm10.6 13.2c0 2.5-2.1 4.6-4.6 4.6s-4.6-2.1-4.6-4.6v-4.5c0-2.5 2.1-4.6 4.6-4.6s4.6 2.1 4.6 4.6v4.5zM56.8 128.8c-1 0-1.8.8-1.8 1.8v4.5c0 1 .8 1.8 1.8 1.8s1.8-.8 1.8-1.8v-4.5c0-1-.8-1.8-1.8-1.8zM451.7 93.8l-1.3-.3-.1.2c-.3-.4-.6-.7-.8-1.1-.3-.5-.5-1.1-.8-1.8.7-.8 1.8-1.1 2.6-2-.2-.5-.1-1 .2-1.5.3-.5.8-.7 1.4-.8.4-.1.8-.3 1.4-.5l-.6-.5c.3-.7.3-.7 1.2-1.1l-.3-.4c.4-.9 1.1-.6 1.9-.5 0-.3-.1-.7-.2-1.1l1.1-.1c.3.3.6.7.9 1.1.4.5.8.8 1.4.9.8.1 1.5.2 2.2.4.2 0 .4.1.5.2 1.2.7 2.3 1.4 3.1 2.6l.3.3.2.2h.9c.2.6.2.6-.3 2 .2.2.4.5.6.8v1.7c.3.1.5.3.7.4-.1.9-.8 1-1.5 1.2 0 .7.2 1.3.3 1.9.2.6.3 1.3.4 2 .1.4-.1.8-.5 1.1-.1-.1-.3-.3-.4-.5-.7.9-.9 1.9-.8 3.1-.3 0-.4 0-.6-.1-.7.6-.9 1.5-1.2 2.3-.3.7-.5 1.5-.6 2.3v.4c.1.7.2 1.4.3 2.3l.7.6c1.3.8 2.6 1.5 3.9 2.2.9.5 1.6 1.1 2 2.1.2.4.5.7.9 1 .8.6 1.8 1.1 2.8 1.3 2 .4 3.9-.7 4.3-2.9.2-1.1-.4-2.1-1.3-2.8-.8-.6-1.8-.9-2.8-.7-1 .1-1.4.6-1.1 1.6.1.5 0 .9-.4 1.2-.2.2-.4.4-.7.6.1.2.1.4.2.5s.2.3.3.5c-.2.1-.4.2-.6.2-.5 0-.8-.3-1.5-1.1 0-.4 0-.8-.1-1.3-.4 0-.8.2-1.1-.3.1-.3.2-.7.4-1.1-.3 0-.5-.1-.7-.1-1.7.3-3.6-.9-4-2.5-.5-1.7.1-3.8 1.6-4.8.6-.4 1.2-.9 1.8-1.4-.2-.8-.3-1.5-.5-2.2.4-.6.8-.9 1.3-.8.4.6.7 1.1 1.2 1.8v-1.3l-.9-.9c-.6-.7-.6-.9.2-1.5l.9.5.1-.1-.8-1.3c-1.3-1.9.1-4.4 2-4.4-.1.6-.2 1.3-.2 1.8.7.9 1.2 1.5 1.8 2.3.6.8.3 1.7.4 2.5.1.1.1.1.2.1.9 0 1.5.3 1.8 1.2l.4.8c-.7.9-1.4-.2-2.2-.1-.3.2-.6.4-1.2.7.4.1.6.1.8.1.8.1 1.5.3 2 .9.1.2.3.3.5.5.4.4.9.6 1.5.4.3.5 0 .8-.2 1.2l-.7.2c-.4.6 0 2.4.8 3.2-.5.6-1.4.5-1.9-.2-.3-.4-.5-1-.7-1.4-.3-.7-.5-1.4-.9-2-.3-.5-.9-.9-1.5-.9-.8-.1-1.6-.2-2.3.3.6.6.9.6 1.7.2.2 1-.1 1.4-1.3 2l-.7 2 .6.6c-.4.4-.9.5-1.5.4-.7-.4-1-1-.9-1.8 0-.5 0-1-.6-1.2-.5.1-.8.4-1 .8-.2.5-.2.9 0 1.4.3.7.8 1.3 1.6 1.5.2 0 .5.1.7 0l3-.9c.1 0 .2-.1.2-.2 0-.5-.2-.8-.7-1.2l1.1-.8c0-.4.1-.8.1-1.3.9-.1 1.3.5 1.7 1.1.1.2.1.4.2.5.4 1.3 1.3 2.1 2.5 2.6 1.5.6 2.1 1.8 2.4 3.3.2 1 .1 2-.3 3s-1.1 1.7-2 2.2c-.8.5-1.8.7-2.7.7-1.3 0-2.6 0-3.9-.6-.7 1.2-.9 2.3-.5 3.6.5 1.4 1.8 1.6 3.1 1.7.8.4 1.1.9 1.2 1.8 0 .3.1.6.2.9.4.2.7.5 1 .7l.4 2.1c-.7.4-1-.3-1.5-.5-.2.6.5.8.6 1.2s.4.9.6 1.3c-.6.2-1 .1-1.4-.2-.4.7-.4 1.1.3 1.4.4.2.8.4.9.9-.4.5-1 .1-1.5.1l-1 1.2c-.2.2-.3.5-.3.8.1.9-.4 1.5-1.2 1.8-.1.3-.2.5-.3.7h-.3c-.3-.1-.5-.4-.4-.8.1-.3-.1-.5-.3-.8-.6.4-1.3.8-1.5 1.6-.8-.5-.8-1.4-1.3-2.1l-.9.7c-.5-.4-.2-1-.3-1.5l.6-.8c-.4-.1-.6-.2-1-.2l.3-.9 1.8-.9c.3-.1.8 0 1.1 0 .3 0 .7.1 1.1.1.2-1.5.6-3 0-4.4-.6-.3-1.1-.7-1.9-.7v1c-.2 0-.4 0-.6-.1-.1.5-.2.9-.4 1.5-.3-.3-.6-.5-.9-.7-.3.1-.6.2-1 .3 0-.3 0-.6-.1-.8 0-.3 0-.6-.2-.8-.2-.5-.4-1-.4-1.6 0-.3-.2-.7-.4-.9-.5-.5-.6-1-.7-1.6 0-.3-.1-.5-.2-.8-.9-.3-1.7.3-2.6.3h-2.5c-.4.5-.3.9 0 1.2.3.3.6.5.8.8.2.3.3.6.4.8l-.2 1c.5.5.9 1.1.9 1.8-.5.3-1-.1-1.5-.2-.3.6.4.9.3 1.4-.6.3-1.1-.2-1.7-.3l.3 1.2c-.7.2-.7.2-1.5-.5-.2.3 0 .5.2.8.4.8.4 1.5-.3 2.2-.2.2-.3.7-.4 1.1-1-.1-1-1.2-1.5-1.8-.4.3-.8.5-1.1.8l-.8 1c-1-.3-.6-1.3-1.1-1.8-.7.1-.7.1-1.3.7-.8-.8.2-1.5 0-2.4h-.9c-.3-.8-.3-.8 1-2l1.6-.1c1.6.1 2.6-.9 2.7-2.5 0-.6-.1-1.2-.4-1.8-.3.1-.6.2-.8.3l-1.3-.9v-1.3c.2.1.4.2.6.2l.1-.5c.1-.7.4-1.4 1-1.9 1.3-1.4 2.9-2.3 4.4-3.3.3-.2.6-.3.9-.4-.3-.5-.8-.5-1.2-.5h-1.2c-1.3 0-2.6.1-3.9-.4-.2.7.4 1.5-.6 2-.1-.2-.2-.4-.4-.6-.4.7-.8 1.3-1.3 2.1-.4.1-.8-.2-1.2-.6-.2-.7 0-1.2.4-1.7.5-.6.6-1.2.2-1.8l-1-2c-.1.3-.2.5-.2.7-.9-.2-.6-1-.7-1.6-.3-.5-.7-.5-1.2-.2 0 .5.1.9.1 1.3-1 .4-1.4-.5-2.3-.6-.1.4-.4.7-.4 1.1 0 .7-.3 1.2-.9 1.6-.4.2-.7.5-1 .7-.3-.1-.6-.2-1-.3l.6-.8c0-.4-.1-.7-.1-.9 0-.7.7-.8.6-1.5-.6-.1-1 .2-1.2.6-.3.5-.7 1-1.1 1.4-.3.2-.4.6-.6 1-.6-.3-.8-.8-.8-1.4v-1.9c-.6-.3-.7.3-1.1.3-.6-1 .2-1.5.8-2.2-.1-.2-.2-.5-.3-.8-.4.1-.6.2-.9.3-.1-.8.2-1.3 1-1.6.4-.1.7-.2 1.1-.4.5-.2 1-.1 1.5.2.9.7 1.8.6 2.8.1 1.2-.6 2.3-1.3 3.6-2-.4-.1-.5-.2-.8-.3.1-.1.2-.3.3-.5-.2-.1-.3-.2-.6-.4.4-.2.6-.4.9-.6.1-.6.2-1.2-.2-1.9-.2.5-.3 1-.5 1.6-.7-1.2-1.2-2.3-1.1-3.7-.5.6 0 1.5-.7 2-.3-.9-.6-1.7-.9-2.7l-.3.1c-.1 0-.2.1-.2.1-.8-.4-1-.8-.8-1.7.1-.3.3-.6 0-.9l-.5.4c-.7.5-1.4.5-2.2.1-.5-.3-1.1-2.1-.9-2.7.1-.3.2-.6.7-.6.2.2.4.5.6.8.2.1.5.2.8.3.2-1.1.4-2.2.2-3.3-.9-.1-1.2.6-1.6 1.2-.7-.5-.8-.9-.6-1.6l.3-1.2c.1-.2.2-.4.4-.6.1-.2.3-.3.6-.6h-.9c-.3-.3-.1-.8.6-1.4.8 0 1.6-.5 2.5 0-.1-.3-.3-.6-.4-1h.9c.7.7 1.4 1.5 1.3 2.8-.1 1 .1 1.9.7 2.7.4.6.8 1.1 1.2 1.6l2.1 2.8c.6.7 1.2 1.5 1.8 2.1 1.3-.4 2.5-.7 3.7-1l.9-.2s.8-.2.6-.9c-.2 0-.4 0-.5.1l-.9.6c-.7.4-1 .3-1.4-.4l-.4-.7-2 .1c-1 0-2.1-.7-2.4-1.7-.3-.7-.4-1.3-.4-2v-1.8c0-1-.3-1.5-1.4-1.8-.1 0-.3-.1-.4-.2.4-.6.4-.6 1.7-.9l.7.2c.6.2 1 .7 1 1.4 0 .8-.1 1.6-.2 2.4s0 1.5.4 2.1c.3.5.7.9 1.4.9 1.4.1 2.1.3 2.5-.5l1.1-.6c.3-.2.9-.2 1.1-.9l-1.2-.5c-.3.3-.7.5-.9.7-.1.5-.1.9-.1 1.3zm.1 1.3c1.6-.3 2.2-.6 2.8-1.3-1 .2-1.9.4-2.8 1.3zm20.8 48.4v8.5c-.7.2-2.9.3-3.9.1-.2-.7-.2-10.9-.1-12l.1-.1c1.5 0 3-.1 4.5 0 1.3.1 2.3.7 3 1.8l4.3 6.4c.1.1.2.2.4.5v-8.4h3.9c.2.8.2 11.2 0 12.2-.2 0-.5 0-.7.1h-2.9c-1.3 0-2.4-.4-3.3-1.4-.6-.7-1.2-1.3-1.7-2.1l-3.2-4.8c0-.2-.1-.5-.4-.8zm-14.2 9c-1.4.1-2.9 0-4.4-.4-2-.4-2.9-1.6-3-3.6-.1-.9-.2-1.8-.2-2.8 0-.9.2-1.8.3-2.6.2-1.4 1.2-2.3 2.5-2.7.7-.2 1.5-.3 2.2-.4 1.4-.2 2.7-.2 4.1-.1 1.1 0 2.2.2 3.2.4 2 .4 3 1.7 3.2 3.9l.2 2.6c-.1 1-.1 2.1-.4 3.1-.4 1.1-1.1 1.8-2.2 2.2-1.1.3-2.2.4-3.4.5-.7 0-1.3-.1-2.1-.1zm-2.4-2.9c1.2.4 2.6.3 3.9.2 1.6-.1 2.3-.8 2.4-2.2 0-1 .1-2 0-3.1-.1-1.2-.7-1.6-1.5-1.8-1.2-.3-2.4-.2-3.6-.1-1.7.2-2.1.8-2.1 2.6v2.2c-.2.8.1 1.6.9 2.2zm-20.2-.2h7.5c.2.7.2 1.6.1 2.6-.7.1-10.2.2-11.5.1l-.1-.1v-11.4c0-.1 0-.2.1-.4h3.8c.2.8.1 1.6.1 2.3v6.9zm8.9-9.1h3.9l.1.1v11.4c0 .1 0 .2-.1.4h-3.9l-.1-.1v-11.4c0-.2 0-.3.1-.4zM200.7 216.1c.1-.1.1-.3.1-.4.1-1.4.3-2.9.7-4.2 0 0 0-.1.1-.2 1.1.6 2.1 1.4 3.1 2.1l2.9 2.4c-1.7-3.3-3.4-6.6-5.8-9.5.7-2.3 1.9-4.4 3.4-6.4 1.9 1 3.7 2.3 5.2 3.9 1.5 1.5 2.9 3.3 3.9 5.2-.5-4-1.4-7.9-2.7-11.9.4.3.8.5 1.1.7 1.4.8 2.8 1.5 4.3 2.2l1.9.8c.2.1.3.2.4.4l1.3 2.3c.7 1.2 1.3 2.5 1.9 3.7.9 1.8 1.7 3.7 2.3 5.6.5 1.4.9 2.8 1.2 4.3l.3 1.5v.2h-.6l-2.1-.3-2.7-.3h-.1c-1.4-.1-2.8-.1-4.2-.1-1.8.1-3.6.3-5.3.8-2.4.6-4.6 1.7-6.6 3.2-1.1.8-2.1 1.8-3.1 2.8-.1.1-.1.2-.3.2-.2-.3-.2-.7-.2-1.1l-.4-2.7c0-.3.1-.5-.1-.8.1-1.5.1-2.9.1-4.4zM233.2 231.1c-.3-.1-.6-.1-.9-.1-1.6-.2-3.1-.5-4.6-.9-2.3-.7-4.5-1.5-6.7-2.5-1.4-.7-2.8-1.3-4.2-1.9-1.4-.5-2.8-.9-4.2-1-.9-.1-1.9-.1-2.8 0-1.5.1-3 .3-4.4.8-1 .3-1.9.7-2.8 1.1-.2.1-.4.3-.6.3 0-.2.1-.3.2-.3 1.5-1.5 3.2-2.7 5.1-3.6 1.4-.6 2.9-1 4.5-1.2 1.1-.1 2.1-.1 3.2 0 2.4.2 4.7.8 7 1.4l6.8 1.9c1.4.3 2.8.6 4.3.8 1.1.1 2.2.2 3.4.2 2.7-.1 5.3-.8 7.7-2.1 1.2-.7 2.4-1.5 3.4-2.4.6-.5 1.1-1 1.6-1.5.8-.8 1.5-1.7 2.2-2.6l.3-.3c.1.2 0 .4 0 .5-.3 2.3-1.1 4.4-2.3 6.3-.7 1.1-1.6 2.1-2.5 3-1.3 1.2-2.9 2.2-4.5 2.9-1.5.6-3 1-4.6 1.2-.3 0-.6 0-.9.1-1.4-.1-2.5-.1-3.7-.1zm-9.1-50.9c.3.1.7.1 1 .1 1.2.1 2.4.4 3.6.7.1 0 .1 0 .2.1-5.8 1.5-9.6 5.3-11.9 10.7-.1 0-.1-.1-.1-.2v-.8l-.1-2.3c0-1.1.1-2.3.4-3.4.4-1.2 1-2.3 1.8-3.3.6-.7 1.4-1.3 2.1-1.8 1.1.2 2.1.2 3 .2zm96.4 47.4h-1.3c-.2-.3-.1-.5-.1-.7-.1 0-.2.1-.3.2-.7.5-1.5.8-2.4.8-1.5 0-2.6-1.1-2.6-2.6v-.8c.2-.8.6-1.3 1.3-1.7.6-.3 1.3-.5 2-.5l2-.2c.2-.6 0-1.2-.6-1.5-.4-.2-.8-.2-1.1-.2-.7 0-1.4.1-2 .3-.3.1-.5.2-.8.2-.1-.3-.1-1-.1-1.5.1-.1.1-.1.2-.1.9-.2 1.7-.4 2.6-.3.5 0 1 .1 1.5.2.9.3 1.4.8 1.6 1.7 0 .1 0 .1.1.2v6.5zm-1.4-4.3h-.1l-1.8.2c-.3 0-.7.1-1 .2-.6.2-1.1.6-1 1.5 0 .7.3 1 1 1.2 1.1.3 2.1-.2 2.9-.9v-2.2zM244.8 209.9c.5-.8 1-1.5 1.6-2.2 1.2-1.6 2.6-3 4.3-4.1.5-.3 1-.6 1.5-.8 0 0 .1-.1.1 0-.2.3-.4.6-.6 1-.5.8-.9 1.7-1.2 2.6-.4 1.2-.8 2.4-.9 3.7-.1.4-.1.7-.1 1.1l-.1.8c0 .4 0 .9.1 1.3 0 .4.1.7.2 1.1.1.4.3.7.4 1-.3.4-.7.7-1.1 1-1.1.8-2.4 1.4-3.7 1.9-1.4.5-2.9.9-4.4 1.2-1.1.2-2.1.4-3.2.5-.4 0-.7 0-1.1.1h-.3c-.1-.1-.1-.2 0-.3.3-1.5.6-3 .9-4.4.4-2.1.9-4.2 1.5-6.2.6-2.2 1.2-4.4 1.9-6.6.1-.3.2-.7.4-1 .1-.2.2-.4.4-.5 1-.7 2-1.5 3.1-2.1.3-.1.5-.3.8-.3.1.1 0 .2 0 .3-.5 1.1-.7 2.3-.9 3.5-.2 1.3-.2 2.7-.1 4.1.1.8.2 2 .5 3.3zm-6.8-19.7c-.3-.2-.6-.4-.9-.5-.7-.3-1.4-.4-2.1-.5-1.3-.2-2.5-.2-3.8-.2-2.4 0-4.8.5-7 1.7-.9.5-1.8 1.1-2.6 1.8l-.2.1c-.1-.1 0-.1 0-.2.6-1.5 1.5-2.9 2.7-4 .6-.6 1.3-1.1 2.1-1.5.8-.5 1.7-1 2.7-1.3 1.3-.5 2.7-.7 4.1-.6.9.1 1.6.5 2.3 1.1.7.7 1.3 1.5 1.9 2.4l.8 1.3c-.1.1 0 .2 0 .4zm53.8 37.4c-.3.1-1 .1-1.3 0-.1-.1-.1-.3-.1-.5v-5c0-.2 0-.5-.1-.7-.1-.7-.5-1-1.2-1.1-.4 0-.7 0-1.1.2-.5.2-.9.5-1.3.8v6.2c-.4.1-.9 0-1.3 0-.1-.2-.1-.3-.1-.5v-3.8c0-.6 0-1.1-.1-1.7l-.1-.5c-.2-.5-.6-.7-1.1-.8-.3 0-.7 0-1 .1-.5.2-1 .5-1.4.9v6.2c-.5.1-.9 0-1.3 0-.1-.3-.1-7.9 0-8.4h1.3l.1.8c.2-.1.3-.2.4-.3.5-.3.9-.6 1.5-.7 1.1-.2 2.2.1 2.8 1.1l.1.1.3-.1c.6-.5 1.2-.9 2-1 .5-.1 1.1-.1 1.6.1.6.2 1 .7 1.2 1.2.2.4.3.8.3 1.3l.1 5.5c-.1.3-.1.4-.2.6zm12.8-21.1c.3-.2.6-.4.9-.7.6-.4 1.2-.6 1.9-.6 1.1-.1 2.1.5 2.4 1.6.2.5.2 1 .2 1.5v5.1c0 .1 0 .3-.1.4h-1.2c-.1-.1-.1-.3-.1-.4v-4.2c0-.5 0-1-.1-1.5-.1-.7-.5-.9-1.2-1-.9-.1-1.8.5-2.4 1v6.1c-.5.1-.9 0-1.3 0-.1-.1-.1-.3-.1-.4v-4.6c0-.4 0-.9-.1-1.3-.1-.5-.5-.8-1-.9-.7-.1-1.3.1-1.8.5l-.7.5v6.2h-1.3c-.1-.3-.1-7.9 0-8.3.3-.1.9-.1 1.3 0l.1.7c.1 0 .2-.1.2-.1.6-.4 1.2-.8 1.9-.9 1-.1 1.9.2 2.5 1.1-.1.1-.1.2 0 .2zm-39.5 14.4c-.1-.3-.1-1.1 0-1.5l.6-.2c.7-.1 1.4-.3 2.1-.2.6 0 1.2.1 1.7.3 1 .4 1.5 1.1 1.6 2.1l.1 2.5v3.2c0 .1 0 .3-.1.5-.4.1-.8 0-1.3 0l-.1-.8-.3.2c-.6.5-1.4.8-2.2.8-1.8.1-2.9-1.2-2.9-2.7 0-.8.2-1.5.8-2.1.4-.3.8-.5 1.3-.7.6-.2 1.3-.2 1.9-.3.4 0 .8-.1 1.3-.1.1-.9-.4-1.5-1.2-1.7-.9-.1-1.8 0-2.6.3-.2.2-.4.4-.7.4zm4.6 2.4c-.4 0-.7.1-1 .1s-.6.1-.9.1-.6.1-.9.2c-.7.3-1.1.7-1 1.6 0 .6.3.9.8 1.1.2.1.4.1.6.1 1 .1 1.8-.4 2.6-1-.2-.8-.2-1.5-.2-2.2zm29-1.3c.1-.9-.4-1.5-1.2-1.6-1.1-.2-2 .1-3 .4l-.3.1c-.1-.2-.1-.9-.1-1.4.1-.1.1-.1.2-.1.8-.2 1.7-.3 2.5-.3.4 0 .9.1 1.3.2 1.2.3 2 1.2 2 2.5v5.7c0 .1 0 .2-.1.3h-1.3l-.1-.8c-.2.1-.3.2-.4.3-.9.6-2 .9-3.1.6-.9-.3-1.5-.9-1.8-1.9-.1-.6-.1-1.2.1-1.7.2-.7.7-1.2 1.4-1.5.8-.4 1.6-.5 2.5-.5.4-.2.9-.2 1.4-.3zm0 1.3h-.2c-.6.1-1.2.1-1.7.2-.4 0-.7.1-1.1.3-.5.2-.8.6-.9 1.1-.1.8.2 1.4 1 1.6 1.1.3 2-.2 2.9-.9v-2.3zm-46.6-39c-2.8 3.4-4.9 7.2-6.1 11.4-.3.1-.6 0-.8 0-.9-.2-1.7-.3-2.6-.6-.1 0-.1 0-.2-.1.8-2.2 2-4.2 3.5-6 1.7-2.1 3.8-3.6 6.2-4.7zm12.4 25.4c0-.8.1-1.7.5-2.4.6-1.1 1.5-1.8 2.8-1.9 2-.2 3.3.9 3.8 2.4.3.9.4 1.8.3 2.7s-.3 1.7-.9 2.4c-.6.8-1.4 1.3-2.5 1.3-.4 0-.9 0-1.3-.1-1.2-.3-1.9-1.1-2.3-2.2-.3-.8-.4-1.5-.4-2.2zm1.5 0c0 .6 0 1.1.2 1.6.3.8.8 1.4 1.7 1.5.8.1 1.5-.1 2-.8.4-.5.5-1.1.5-1.7.1-.8 0-1.6-.2-2.3-.2-.5-.5-.9-.9-1.2-.9-.5-2.6-.3-3 1.3-.3.5-.3 1-.3 1.6zm37.5 11.7v6.2c-.5.1-.9.1-1.4 0-.1-.3-.1-8 0-8.4h1.3c.2.2 0 .5.1.8.1 0 .2-.1.3-.2.5-.4 1.1-.7 1.7-.8.9-.1 1.8 0 2.5.8.3.4.5.9.6 1.4.1.3.1.7.1 1v4.9c0 .1 0 .3-.1.5h-1.3c-.1-.2-.1-.3-.1-.5v-4.4c0-.4 0-.8-.1-1.2-.2-.8-.5-1.1-1.4-1.1-.5 0-.9.1-1.3.3-.1.2-.5.4-.9.7zm-30.1-15.9h1.3c.1.1.1.3.1.4v4.6c0 .4 0 .7.1 1.1.2.7.6 1.1 1.3 1.1 1 0 1.7-.4 2.4-1v-6.2c.5-.1.9 0 1.4 0v8.4c-.5.1-.9 0-1.3 0l-.1-.8c-.4.3-.8.6-1.3.8-1 .4-2 .4-2.9-.2-.6-.4-.8-1-.9-1.6-.1-.3-.1-.6-.1-.8v-5.3c0-.2-.1-.3 0-.5zm5.2 14.2v1.5c-.2.1-.3 0-.4-.1-.7-.5-1.5-.7-2.3-.8-.4 0-.8 0-1.2.3-.3.2-.5.5-.5.9s.2.7.6.9.9.3 1.4.4l1.2.3c.3.1.6.3.9.5.4.3.6.8.7 1.3.2 1.4-.6 2.5-2 2.9-1 .3-2.1.2-3.1-.1-.4-.1-.8-.2-1.1-.5v-1.6c.2-.1.2 0 .3.1.6.4 1.3.8 2.1.9.6.1 1.1.1 1.7-.1.6-.2.8-.7.7-1.4-.1-.2-.2-.4-.4-.5-.5-.3-1-.3-1.5-.4-.5-.1-.9-.2-1.4-.4-1-.4-1.5-1.2-1.4-2.3s.7-1.8 1.8-2.2c1.4-.5 2.7-.2 4 .3-.2 0-.2 0-.1.1zm12.2-6.4v-1.5c.1-.1.2 0 .3 0 .7.5 1.5.9 2.4 1 .5.1 1 0 1.5-.2s.8-.7.7-1.3c-.1-.3-.2-.5-.5-.6-.4-.2-.9-.3-1.3-.4-.6-.1-1.3-.2-1.8-.6-.7-.4-1-.9-1.1-1.7-.1-1.5 1-2.4 2-2.6 1.3-.3 2.5-.2 3.6.3l.2.1s.1 0 .1.1v1.5c-.2 0-.3-.1-.4-.2-.8-.5-1.6-.8-2.6-.7-.3 0-.7.1-.9.3-.4.2-.6.5-.6.9s.2.7.6.9c.5.2 1 .3 1.5.4l1.2.3c.9.4 1.5 1.1 1.4 2.1 0 1.1-.5 1.9-1.7 2.4-.8.3-1.6.4-2.4.3-.5-.1-1.1-.2-1.6-.4-.2-.1-.4-.2-.6-.4zM256.9 217.9v-1.4c.3-.1 8.6-.1 8.9 0 .1.3.1.9 0 1.3-.4.1-.8 0-1.2 0h-2.4c-.1.2-.1.3-.1.5v8.8c0 .2 0 .3-.1.5h-1.4v-9.8c-1.2.1-2.5.1-3.7.1zm3.7-13.7h-3.7c-.1-.5-.1-.9 0-1.3.3-.1 8.6-.1 9 0v1.3h-3.7v9.7h-1.4c-.1-.2-.1-.3-.1-.5v-8.7c-.1-.2-.1-.3-.1-.5zm-53.8-15c3.8 1.2 7.4 2.9 10.3 5.8l-1.5.1s-1.1.1-1.6.1c-.5.1-1 .1-1.6.2-.5.1-1 .2-1.6.2l-.3-.8c-.6-1.2-1.3-2.3-2.1-3.4l-1.6-2.2zm76.7 18.8v5.9h-1.4c-.1-.3-.1-7.9 0-8.3h1.3l.1 1.1.6-.4.9-.5c.6-.3 1.3-.2 1.9-.2.1 0 .1 0 .2.1v1.4c-.2.1-.3.1-.4.1-1.1-.4-2.2-.1-3.2.8zm28.7 19.6c-.4.1-.9 0-1.3 0-.1-.3-.1-8 0-8.4h1.3c.1.3.1 7.8 0 8.4zm-83.3-17.8c-.6-.6-1-1.3-1.6-1.8-.6-.6-1.2-1.1-1.8-1.6-.7-.5-1.4-.9-2.1-1.3.1-.2.2-.2.3-.2.9-.2 1.8-.1 2.7.1.6.1 1.3.3 1.8.6.2.1.3.3.4.5.2.7.3 1.3.4 2 .1.5 0 1.1-.1 1.7zm10.2-4.8c-1.1.6-2.1 1.3-3 2.1s-1.7 1.7-2.5 2.7c-.2-.1-.2-.3-.2-.4-.1-1 .1-2 .3-3l.1-.4c0-.4.2-.5.5-.7.6-.3 1.3-.5 2-.6.4-.1.8-.1 1.2-.1.5 0 1 .1 1.4.2.1 0 .2.1.2.2zm48.7.5h1.4c.1.7 0 1.4 0 2.1v6.2c-.3.1-.9.1-1.4 0-.1-.7 0-1.4 0-2.1v-6.199999999999999zm-53.3 14.6c-.5.4-.9.9-1.3 1.3-.3.4-.7.5-1.2.5-.6 0-1.3-.1-1.9-.3-.4-.1-.6-.3-.8-.7-.3-.5-.5-1-.9-1.4l.1-.1.8.3c1.3.4 2.6.5 3.9.4.4.1.9.1 1.3 0zm54.8-15.9h-1.6c-.1-.5-.1-1 0-1.5h1.6c.1.5 0 1 0 1.5zm21.5 12.2c.3-.1 1.1-.1 1.5 0 .1.3.1 1.1 0 1.5h-1.5c-.1-.5 0-1 0-1.5zM387.2 198.7c.8-1.7 1.5-3.4 2.2-5.1l2.8-6.6c1.1-2.6 3-4.2 5.8-4.8 3.5-.7 7.1 1 8.7 4.2.9 1.8 1.6 3.6 2.4 5.5 1 2.3 2 4.5 3 6.9.2-.1.2-.3.3-.5l4.9-11.4c1.4-3.1 4.5-5 7.9-4.8 3.7.3 7 3.3 7.4 7.2.1 1.5-.1 2.9-.7 4.2l-4.8 11.2c-2.4 5.6-4.8 11.2-7.3 16.8-.5 1.1-1 2.1-1.8 3-1.6 1.8-3.6 2.7-6 2.6-3.4-.1-5.8-1.7-7.2-4.7-.5-1.1-1-2.2-1.4-3.3l-3.6-8.2c-.1-.1-.1-.3-.3-.4-.4.8-.7 1.6-1 2.4l-3.9 9c-.8 1.9-2.1 3.5-4 4.5-3.2 1.6-7.9 1-10.3-3-.5-.9-.9-1.9-1.3-2.8-1.4-3.2-2.8-6.4-4.2-9.7 0-.1-.1-.2-.2-.3-.2.1-.2.3-.3.4l-4.8 11c-1 2.3-2.6 4-5 4.8-4.5 1.5-9.4-1.3-10.3-5.9-.4-1.8-.1-3.5.6-5.2l6-13.9c2.1-4.9 4.2-9.8 6.4-14.7 1.1-2.5 3-4.1 5.7-4.7 3.4-.8 6.8.7 8.5 3.7.6 1 1 2 1.4 3.1l4 9.2c.2 0 .2.2.4.3zm24.9 25.8c2.1-.1 3.7-.8 4.7-2.6.3-.4.5-.9.7-1.3l12.3-28.4c.4-1 .5-2.1.3-3.2-.6-3-3.6-5-6.6-4.3-1.8.4-3 1.6-3.8 3.3l-5.7 13.2-.5 1.2c-.5.9-1.6 1-2.3.2l-.3-.6-4.7-10.7c-.5-1.2-1-2.5-1.6-3.6-1.1-2.2-3.4-3.4-5.8-3-2 .4-3.3 1.5-4.1 3.3-2 4.6-4 9.2-5.9 13.8l-.4.9c-.5.7-1.5.8-2.1.1l-.3-.6-2.2-5c-1.3-3-2.6-6.1-4-9.1-1.4-3.2-5-4.3-7.9-2.4-1.1.7-1.8 1.7-2.3 2.9l-7.8 18.2-4.4 10.2c-.5 1.1-.6 2.2-.4 3.4.6 2.9 3.6 4.9 6.5 4.2 1.9-.4 3.2-1.7 4-3.4 1.8-4 3.5-8.1 5.2-12.1.3-.8.6-1.5 1-2.3.2-.5.6-.8 1.2-.8s1 .3 1.2.8c0 .1.1.2.1.2l6 13.9c.2.6.5 1.1.9 1.6 1.7 2.4 4.7 2.6 6.7 1.6 1.4-.7 2.2-1.8 2.8-3.1l6-13.8.3-.6c.5-.8 1.7-.9 2.2 0 .1.2.2.3.2.5 2.1 4.8 4.1 9.6 6.2 14.3.6 1.9 2.3 3 4.6 3.1zm24.1-19.9h2.9c.9 2.2 1.8 4.3 2.6 6.5h.1l2.5-6.5h3v9.8h-2.1v-6.2h-.1c-.8 2.1-1.6 4.1-2.5 6.2h-1.8l-2.4-6.1h-.1v6.1h-2.1v-9.8zm53.6 9.8l-2.4-6.1h-.1v6.1c-.7.1-1.4 0-2 0-.1-.4-.1-9.1 0-9.8h2.9l1.3 3.2s.9 2.2 1.4 3.2c.8-2.1 1.7-4.3 2.5-6.5h3c.1.4.1 9.1 0 9.8-.7.1-1.4 0-2.1 0v-6.3h-.1c-.8 2.1-1.6 4.2-2.5 6.3-.7.1-1.3.1-1.9.1zm-31.6-2.9c.7-.2 1.3-.4 1.9-.5.1.1.1.1.1.2.3 1.2 1.5 1.7 2.6 1.3.5-.2.7-.5.7-.9s-.2-.7-.7-.9c-.4-.2-.9-.2-1.3-.3l-1.2-.3c-2.1-.9-2.5-3.5-.7-5 1.5-1.2 4.1-1.1 5.3.2.4.4.7.9.7 1.6-.6.2-1.3.4-1.8.5-.2-.1-.2-.2-.2-.3-.4-.8-1.4-1.2-2.3-.8-.4.2-.6.5-.6.9s.3.7.8.8 1.1.2 1.6.3c.4.1.7.2 1 .3 2 1 2.3 3.6.6 5l-1 .6c-1.2.4-2.4.3-3.5-.2-1.2-.3-1.9-1.2-2-2.5zm22.8-6.9h2.1c.1.1.1.3.1.4v5.7c0 .4 0 .9-.1 1.3-.3 1.3-1.1 2.1-2.3 2.5-1 .3-2 .3-3 0-1.4-.5-2.3-1.6-2.4-3.1v-6.1c0-.2 0-.4.1-.6h2.1c.1.2.1.4.1.6v5.5c.1 1.2.9 1.9 2.1 1.7.6-.1 1-.5 1.2-1.1.1-.3.1-.6.1-.9v-5.3c-.1-.2-.1-.4-.1-.6zm-24 0v6.1c0 .4 0 .8-.1 1.2-.3 1.3-1.1 2.2-2.4 2.6-1 .3-2 .3-2.9 0-1.5-.5-2.4-1.6-2.5-3.2-.1-1.7 0-3.3 0-5v-1.7h2.2c.1.2.1.4.1.6v5.3c0 .3 0 .5.1.8.1.6.5 1 1 1.1 1.2.3 2.3-.2 2.3-1.6v-6.199999999999999h2.2zm40.8 6.9c.7-.2 1.3-.3 1.9-.5.2.1.2.3.2.4.4 1.1 1.9 1.6 2.9 1 .6-.4.6-1.1 0-1.5-.2-.2-.5-.2-.8-.3-.4-.1-.8-.2-1.3-.2-1.6-.3-2.5-1.4-2.6-2.7-.1-1.4.7-2.6 2.1-3.1 1.3-.5 2.7-.4 3.9.4.7.4 1 1.1 1.2 1.9-.4.2-1.5.5-1.9.6l-.1-.2c-.3-1-1.4-1.1-2.2-.9l-.5.3c-.5.5-.4 1.2.3 1.5.4.2.8.2 1.3.3.6.1 1.1.2 1.7.5 2.1 1 2.3 3.7.4 5-1.4 1-3.9.9-5.3-.2-.7-.6-1.1-1.3-1.2-2.3zm-28.2-3h3.7c.1.6 0 1.2 0 1.9h-3.7c-.1.7 0 1.3 0 1.9h4v2c-.4.1-5.6.1-6.2 0v-9.8c.4-.1 5-.2 6.2-.1v2h-4c-.1.9 0 1.5 0 2.1zm8.5 13.4c0 2.6-1.3 4.5-3.6 5.2-3 .9-5.9-1.1-6.3-4.2-.2-1.4 0-2.7.9-3.9 1.2-1.7 3.3-2.4 5.4-1.9 2 .5 3.5 2.2 3.6 4.3v.5zm-1.4.2c0-.4 0-.8-.1-1.3-.4-1.5-1.7-2.6-3.4-2.6-1.6 0-2.9.9-3.4 2.4-.3 1-.3 2.1.1 3.1.5 1.4 1.8 2.3 3.3 2.3s2.8-.9 3.3-2.3c.1-.5.2-1 .2-1.6zm4.3 1v3.9c-.5.1-.9.1-1.4 0v-9.8c.2-.1.3-.1.5-.1h3.3c2.5 0 3.4 2.3 2.7 4-.3.8-.9 1.3-1.7 1.6-.1 0-.3 0-.4.2l1.1 2s.7 1.3 1.1 2l-1.6.1c-.4-.7-.8-1.3-1.1-2l-1.1-2c-.4 0-.8 0-1.4.1zm.1-1.3h2.4c.7 0 1.2-.4 1.5-1.1.4-1.1-.4-2.2-1.6-2.2h-1.8c-.1 0-.3 0-.4.1-.1 1-.1 2-.1 3.2zm10.2 5.2c1.3-3.3 2.6-6.6 3.9-9.8.5-.1 1.1 0 1.6 0l3.9 9.8c-.3.1-.5.1-.7.1h-.7l-1.1-2.7h-4.4l-1 2.7c-.5-.1-.9-.1-1.5-.1zm4.8-8.2h-.1c-.5 1.4-1.1 2.8-1.6 4.3h3.4c-.6-1.5-1.2-2.9-1.7-4.3zm-37 1.3c-.4.2-.8.3-1.2.4-.2-.1-.2-.3-.2-.4-.5-1.3-1.6-2-3.1-1.9-1.9.1-3.1 1.5-3.3 3.4-.1.9 0 1.8.5 2.7 1.1 1.9 3.5 2.1 4.8 1.2.5-.3.8-.7 1.1-1.3l.2-.5c.4 0 .8.2 1.2.4-.5 1.5-1.4 2.5-2.9 3-2.5.7-5.4-.5-6.2-3.4-.5-2-.2-3.9 1.4-5.4 1.7-1.7 4.8-1.8 6.5-.2.6.5 1 1.2 1.2 2zm-18.4 5.2c1-2.7 2-5.4 3-8 .5-.1.9-.1 1.5 0l-3.8 9.9h-1.4l-3.7-9.8c.5-.1 1-.1 1.5 0 .9 2.5 1.8 5.1 2.9 7.9zm27-8c.1.4 0 .7 0 1.2-.6.1-1.1 0-1.7 0h-1.7v8.5h-1.4v-8.6h-3.3c-.1-.4-.1-.8 0-1.2.6-.1 7.6-.1 8.1.1zm-19.6 9.7h-1.4v-9.8c.5-.1.9-.1 1.4 0v9.8zm40.4-9.8c.4-.1.9 0 1.3 0 .1.4.2 8.8.1 9.8-.4.1-.9 0-1.4 0v-9.8zM161.6 136h1.1v8.5h-1.1v-8.5zm8.9 8.5v-7.5h-2.8v-1h6.7v1h-2.8v7.5h-1.1zm8.6 0l3-8.6h1.4l3 8.6h-1.3l-.9-2.6h-3.1l-.9 2.6h-1.2zm2.3-3.5h2.6s-1.3-3.7-1.4-4.1c0 .5-1.2 4.1-1.2 4.1zm11.1 3.5v-8.5h1.1v7.5h4.2v1h-5.3zm11.5 0v-3.6l-2.8-4.9h1.4s1.8 3.5 2 4c.3-.4 2.1-4 2.1-4h1.3l-2.9 4.9v3.6h-1.1zM141 106.7v6.9h3.1c2 0 3.7-1.5 3.7-3.4s-1.6-3.4-3.7-3.4l-3.1-.1zm-5.7-3.2h9.7c3.8 0 6.8 3 6.8 6.6 0 3.7-3.1 6.6-6.8 6.6h-4v5.8c0 1.5.6 2.9 1.6 3.8h-7.1c1-.9 1.6-2.3 1.6-3.8v-15.4c0-1.4-.7-2.7-1.8-3.6zm39.8 5.9v5.7h2.6c1.7 0 3.1-1.3 3.1-2.9s-1.4-2.9-3.1-2.9h-2.6v.1zm-5.5-3.4h8.7c3.4 0 6.2 2.7 6.2 6 0 2-1 3.7-2.5 4.8 1.6 1.4 2.6 4.5 3.5 6.6.9 2.2 2.5 2.9 2.5 2.9h-6.7c.4-.5.5-1 .5-1.4 0-.3-.6-2.3-1.8-4.6-.9-1.8-2.5-2.2-3.2-2.3h-1.5v4.9c0 1.4.6 2.6 1.4 3.4h-6.9c.9-.8 1.4-2 1.4-3.4v-13.5c0-1.3-.7-2.6-1.6-3.4zm21.5 10.3c0 4 2 7.2 4.5 7.2s4.5-3.2 4.5-7.2-2-7.2-4.5-7.2-4.5 3.2-4.5 7.2zm-3.9-.7c0-5.4 3.8-9.8 8.5-9.8s8.5 4.4 8.5 9.8v1.3c0 5.4-3.8 9.8-8.5 9.8s-8.5-4.4-8.5-9.8v-1.3zm47.1 10.7h-6.8c1-.8 1.6-2 1.6-3.4v-13.4c0-1.3-.6-2.6-1.5-3.4h6.7c-.9.8-1.5 2-1.5 3.4v13.4c-.1 1.4.5 2.6 1.5 3.4zm-10 0h-4.8l-8.1-12.5v9.1c0 1.4.6 2.6 1.6 3.4h-6.8c1-.8 1.6-2 1.6-3.4v-13.4c0-1.3-.6-2.6-1.5-3.4h4.8l8.1 12.4v-9.1c0-1.3-.6-2.6-1.5-3.4h6.7c-.9.8-1.5 2-1.5 3.4v13.4c-.2 1.5.4 2.7 1.4 3.5zm-61.3-8.5c1.6.1 3.2-.2 3.6-.3l.3.5c-3.4.7-4.8.2-4.8.2-.1.1-.5.5-2.5.3-2.1-.3-5.7-.1-8 1.3.3-1 .9-1.8.9-1.8l-.7-1c1-.6 3-1.1 5.3-1.1 1.1 0 2.2 0 3.1.2h.1c1.2.2 1.5.1 1.5.1.2-.1.3-.3.4-.4-.2.1-.5.2-.9.2h-.3c-1.1-.3-2.4-.4-3.9-.4-2.5 0-4.6.5-5.5 1.2l-.3-.4c.5-.6 2-1.1 3.9-1.3v-5.5c0-1.3-.6-2.6-1.5-3.4h12.5l.5 4.1c-.8-.7-3.2-.7-3.2-.7h-4.2v5.5c.5 0 .9.1 1.4.2.1-.2.1-1.2.1-1.4.7.2 1.6.2 2.8.2 1.6 0 3-.2 3.4-.5l-.4.8c-2.3.4-3.8.3-4.6.2 0 0 .8.9 4.4.1l-.7 1.3.8 1.2c-.7.2-2.7.4-3.3.3l-.7-.1s-.5.4.5.4zm-11.5 2.6c2.6-1.8 6.3-1.9 8.2-1.5 2 .3 2.3-.4 2.3-.4s.2 1.4-2.3 1h-.3v3.6h4.8s2.5-.1 3.2-.7l-.5 4.1h-13.2c1-.8 1.6-2 1.6-3.4v-3.4c-1.4.2-2.9.7-4.1 1.6l.3-.9zM634.4 201.3c-2.3 2.3-3.5 5-3.5 8.3 0 6.5 5.2 11.6 11.7 11.6s11.7-5.1 11.7-11.6c0-3.2-1.2-5.9-3.4-8.2-2.3-2.3-5.1-3.5-8.3-3.5-3.1-.1-5.9 1.1-8.2 3.4m-13.5 9h7.9v-3.5h-7.9v-4.9h8.6v-3.6h-12.3v22.6h12.3v-3.6h-8.6v-7zm-54.4-12.1v22.6h3.7v-22.6h-3.7zm-16.2 22.6c4.1 0 7.3-.9 9.5-2.9 2.5-2.2 3.7-5 3.7-8.4 0-3.6-1.3-6.4-3.8-8.6-2.1-1.8-5.3-2.7-9.4-2.7h-4.8v22.6h4.8zm36.6-4.9l2.1 4.9h4.1l-9.6-22.7h-1.9l-9.9 22.7h4.1l2.2-5c.1-.1.1-.2.1-.3.1 0 .2.1.4.2 1.2.5 2.7.7 4.1.7 1.4 0 2.8-.3 3.6-.6.4-.1.6-.2.7-.3-.1.1 0 .3 0 .4zm23.9-10.8l2.8-2.4c-2.4-3.2-5.7-4.9-9.5-4.9-6.5 0-11.8 5.2-11.8 11.7 0 6.4 5.2 11.6 11.6 11.6 1.6 0 3.1-.3 4.6-1s2.7-1.6 3.7-2.7 1.6-2.4 2-3.7c.3-1.1.5-2.5.4-4.2v-.7h-10.2v3.6h6.3c-.2 1.4-.9 2.6-2.1 3.6-1.4 1.1-2.9 1.7-4.7 1.7-2 0-3.8-.8-5.5-2.5-1.5-1.5-2.3-3.4-2.3-5.5 0-2.3.8-4.2 2.4-5.9 1.5-1.6 3.4-2.3 5.6-2.3 2.8-.1 4.9 1.2 6.7 3.6zm37.6-1.3c1.6 1.5 2.4 3.5 2.4 5.7s-.8 4.2-2.4 5.7c-1.6 1.6-3.5 2.4-5.7 2.4-4.5 0-8-3.7-8-8.1 0-2.2.8-4.2 2.4-5.8 1.5-1.6 3.5-2.3 5.6-2.3 2.2 0 4.1.8 5.7 2.4zm-97.9-2c3.2 0 5.4.7 6.8 1.9 1.7 1.5 2.5 3.4 2.5 5.8 0 2.3-.8 4.2-2.4 5.7-1.4 1.3-3.7 2-6.9 2h-1v-15.5h1v.1zm28.9 10.5c.1-.1.2-.4.2-.5l2.9-6.9 2.8 7c0 .1.1.3.2.5l-.3.1c-.8.2-1.7.4-2.6.4-.9 0-1.7-.1-2.6-.4-.3-.1-.5-.2-.6-.2zM688.7 198.6h12.9v2.5h-10.4v6.4h7.4v2.5h-7.4v10.3h-2.5v-21.7zM713.2 213.9h-8l-2.3 6.5h-2.7l7.9-21.8h2l7.9 21.8h-2.7l-2.1-6.5zm-.9-2.5l-3.1-8.9-3.1 8.9h6.2zM721.2 198.6h9.1l2.8.8 2 2.2.6 2.9-.6 2.4-1 1.4-.9.5.9.6 1.3 1.9.7 3-.7 3-1.6 1.9-2.5 1.2h-10.1v-21.8zm9.7 9l1.5-1 .4-.6.4-1.4-.4-1.7-1.1-1.2-1.7-.5h-6.3v6.4h7.2zm-.2 10.3l1.5-.7.9-1.1.5-1.8-.5-2-.8-1.3-1.6-1h-7v7.8h7zM741.1 219.2l-1.3-1.3 1.8-1.8 1 1 2.1 1h1.9l2.1-.9 1.4-1.8.5-1.9v-2.7l-1 .9-2.5 1.1h-2.9l-3.2-1.6-1.5-2.2-.6-2.1v-2.4l.6-2.2 1.5-2.2 3.1-1.6h3.6l3.2 1.6 1.6 2.3.6 2.3v9.3l-.7 2.6-2.1 2.7-3.2 1.4h-3l-3-1.5zm5.7-9l2.1-.9 1.4-1.2.4-.9v-2.4l-.4-1.6-1-1.5-2-1h-2.4l-2 1-.8 1.2-.5 1.6v1.8l.4 1.3.9 1.3 2 1h1.9z"/></svg>