<svg viewBox="0 0 649 95" version="1.1" xmlns="http://www.w3.org/2000/svg" xmlns:xlink="http://www.w3.org/1999/xlink">
  <defs>
    <path id="a" d="M22.89.544h626.02V95H0V.544h22.89L0 .5435v23.056h22.89z"/>
  </defs>
  <g stroke="none" stroke-width="1" fill="none" fill-rule="evenodd">
    <g transform="translate(0 -.544)">
      <path d="M11.519.5435c6.35 0 11.371 5.057 11.371 11.602 0 6.248-4.873 11.454-11.371 11.454S0 18.5425 0 12.1455C0 5.6005 5.021.5435 11.519.5435" fill="#00F"/>
      <mask fill="#fff">
        <use xlink:href="#a"/>
      </mask>
    </g>
    <path d="M648.9097 39.716c0 6.248-4.873 11.454-11.371 11.454s-11.52-5.058-11.52-11.454c0-6.545 5.022-11.602 11.52-11.602 6.35 0 11.371 5.057 11.371 11.602M648.9097 83.0023c0 6.248-4.873 11.454-11.371 11.454s-11.52-5.058-11.52-11.454c0-6.545 5.022-11.602 11.52-11.602 6.35.148 11.371 5.206 11.371 11.602" fill="#00F"/>
  </g>
</svg>
