<svg viewBox="0 0 685 119" version="1.1" xmlns="http://www.w3.org/2000/svg" xmlns:xlink="http://www.w3.org/1999/xlink">
  <defs>
    <path id="a" d="M62.0257 0H0v94.3078h62.0257V0z"/>
    <path id="c" d="M168.5014 119H684.796V0H0v119h228.0194V28.114h-59.518z"/>
    <path id="d" d="M54.796 66.4566V.2626H.3017v66.194H54.796z"/>
  </defs>
  <g stroke="none" stroke-width="1" fill="none" fill-rule="evenodd">
    <mask id="b" fill="#fff">
      <use xlink:href="#a"/>
    </mask>
    <path d="M.1477 58.4588h6.35l3.545 6.248c7.088 12.346 16.245 20.23 27.025 20.23 6.055 0 10.633-2.38 10.633-9.52 0-17.999-47.258-13.537-47.258-49.683 0-14.28 11.519-25.734 30.866-25.734 8.713 0 14.177 1.637 19.198 1.637h6.941v30.94h-6.35l-1.625-4.017c-5.907-13.238-13.143-20.825-23.333-20.825-5.021 0-10.042 3.57-10.042 10.115 0 18.892 45.928 14.727 45.928 50.129 0 16.511-12.7 26.329-28.945 26.329-11.519 0-17.426-1.636-22.891-1.636h-10.19v-34.213h.148z" fill="#1F1F1F" mask="url(#b)"/>
    <path fill="#1F1F1F" d="M90.3807 28.56v55.038l8.122 8.925h-37.51l8.565-8.925V38.824l-8.713-8.925"/>
    <path d="M102.6382 83.7463v-44.922l-6.941-8.925 26.73-1.339-1.034 11.156h.296c4.726-7.14 11.519-11.602 19.494-11.602 12.553 0 21.856 8.181 21.856 19.932v35.551l6.941 8.925h-34.557l6.646-8.925v-40.311h-18.313v40.311l6.498 8.925h-34.409l6.793-8.776z" fill="#1F1F1F"/>
    <path d="M176.6263 97.58c-3.987-1.19-6.941-4.909-6.941-10.859 0-3.272 1.329-6.694 4.135-9.669l6.793-7.437c-5.021-3.272-10.78-9.669-10.78-18.148 0-13.685 11.666-23.353 25.548-23.353 5.022 0 10.043 1.19 11.963 1.636h20.675v3.421l-11.519 5.355c2.215 2.975 3.249 8.628 3.249 13.09 0 13.09-12.11 21.271-25.254 21.271-1.033 0-8.417.149-10.78-1.338v10.71l20.97-3.57c2.659-.446 5.465-.744 6.646-.744 8.122.149 12.848 6.991 12.848 17.106 0 17.106-21.413 23.949-36.182 23.949-12.405 0-19.493-3.124-19.493-9.223-.148-4.164 5.316-9.668 8.122-12.197zm5.464 11.007l8.123.149c12.848 0 22.299-3.272 22.299-8.032v-1.785h-30.422v9.668zm14.473-43.732c3.692 0 5.907-3.57 5.907-9.669 0-10.561-4.43-18.445-8.861-18.445-3.987 0-5.907 5.355-5.907 11.454-.148 10.115 4.431 16.66 8.861 16.66z" fill="#1F1F1F"/>
    <mask fill="#fff">
      <use xlink:href="#c"/>
    </mask>
    <path fill="#1F1F1F" d="M225.0657 1.785l8.565 8.925v73.036l-8.565 8.926h37.659l-8.123-8.926V.447"/>
    <g fill="#1F1F1F">
      <path d="M286.6486 28.2626c15.802 0 24.663 10.413 24.663 22.015v6.396h-35.296c.443 14.132 9.156 20.528 17.722 20.528 7.827 0 11.519-3.273 16.097-7.289l2.954 1.339c-4.431 14.429-13.144 23.205-26.288 23.205-18.755 0-28.207-15.47-28.207-31.833 0-18.296 11.667-34.361 28.355-34.361zm6.498 20.825v-1.785c0-6.545-2.363-9.669-6.941-9.669-3.987 0-7.975 4.016-9.599 11.603h16.54v-.149zM331.2482 82.4076v-70.507l-10.19-10.264h39.283c31.456 0 45.338 17.998 45.338 44.476 0 26.477-21.561 46.559-45.486 46.559h-38.987l10.042-10.264zm25.696 1.19c17.722 0 22.3-9.966 22.3-32.874 0-24.246-6.941-41.203-23.333-41.203h-1.329v74.226h2.362v-.149zM438.0215 28.2626c18.312 0 31.161 13.239 31.161 32.725 0 18.891-13.144 33.469-30.718 33.469-18.755 0-31.308-14.131-31.308-33.618-.148-18.891 12.848-32.576 30.865-32.576m1.772 56.674c4.135 0 7.237-5.504 7.237-19.933 0-20.825-5.169-27.667-10.634-27.667-4.135 0-7.236 5.503-7.236 19.932-.148 20.974 5.169 27.668 10.633 27.668M494.8786 28.56v49.385h17.574V38.824l-7.679-8.925 28.65-1.339v55.038l6.645 8.925-26.287 1.338 1.034-11.751h-.295c-5.908 8.33-12.701 12.198-19.494 12.198-11.667 0-21.119-8.182-21.119-19.933V38.824l-6.055-8.925 27.026-1.339zM560.7443.4463v32.725h.295c3.545-2.231 8.27-4.909 15.212-4.909 16.097 0 25.401 13.537 25.401 30.791 0 19.636-11.076 35.403-31.013 35.403-14.916 0-23.482-4.314-30.718-8.776V9.3713l-8.713-7.735 29.536-1.19zm5.169 83.003c6.646 0 14.177-3.273 14.177-19.04 0-15.917-4.43-21.718-15.063-21.718h-4.135v40.758h5.021z"/>
    </g>
    <path fill="#1F1F1F" d="M597.0735 1.785l8.566 8.925v73.036l-8.566 8.926h37.659l-8.123-8.926V.447"/>
    <g transform="translate(630 28)">
      <mask id="e" fill="#fff">
        <use xlink:href="#d"/>
      </mask>
      <path d="M28.6567.2626c15.802 0 24.663 10.413 24.663 22.015v6.396h-35.296c.443 14.132 9.156 20.528 17.722 20.528 7.827 0 11.519-3.273 16.097-7.289l2.954 1.339c-4.431 14.429-13.144 23.205-26.288 23.205-18.755 0-28.207-15.47-28.207-31.833 0-18.296 11.667-34.361 28.355-34.361zm6.498 20.825v-1.785c0-6.545-2.363-9.669-6.941-9.669-3.987 0-7.975 4.016-9.599 11.603h16.54v-.149z" fill="#1F1F1F" mask="url(#e)"/>
    </g>
  </g>
</svg>
